<svg xmlns="http://www.w3.org/2000/svg" xmlns:xlink="http://www.w3.org/1999/xlink" width="940" zoomAndPan="magnify" viewBox="0 0 705 591.000005" height="788" preserveAspectRatio="xMidYMid meet" version="1.0"><defs><clipPath id="b953c1cd00"><path d="M 94.394531 34.652344 L 610.273438 34.652344 L 610.273438 474.15625 L 94.394531 474.15625 Z M 94.394531 34.652344 " clip-rule="nonzero"/></clipPath><clipPath id="77fd25ca29"><path d="M 181 336.269531 L 184 336.269531 L 184 341 L 181 341 Z M 181 336.269531 " clip-rule="nonzero"/></clipPath><clipPath id="f38de98e1e"><path d="M 135.042969 386 L 201.679688 386 L 201.679688 474 L 135.042969 474 Z M 135.042969 386 " clip-rule="nonzero"/></clipPath><clipPath id="a15e27cbeb"><path d="M 482 388 L 561.917969 388 L 561.917969 473.558594 L 482 473.558594 Z M 482 388 " clip-rule="nonzero"/></clipPath><clipPath id="acd8468eb5"><path d="M 482 383.710938 L 561.917969 383.710938 L 561.917969 394 L 482 394 Z M 482 383.710938 " clip-rule="nonzero"/></clipPath><clipPath id="8e7743e731"><path d="M 463.085938 400 L 492 400 L 492 454 L 463.085938 454 Z M 463.085938 400 " clip-rule="nonzero"/></clipPath><clipPath id="3b82159b74"><path d="M 135.042969 478.589844 L 561.820312 478.589844 L 561.820312 583.414062 L 135.042969 583.414062 Z M 135.042969 478.589844 " clip-rule="nonzero"/></clipPath></defs><g clip-path="url(#b953c1cd00)"><path fill="#d9d9d9" d="M 579.269531 34.652344 L 125.394531 34.652344 C 108.265625 34.652344 94.394531 48.542969 94.394531 65.691406 L 94.394531 367.355469 C 94.394531 384.507812 108.265625 398.394531 125.394531 398.394531 L 296.585938 398.394531 L 283.554688 442.796875 L 254.96875 467 C 252.132812 469.417969 253.8125 474.046875 257.597656 474.046875 L 438.875 474.046875 C 442.65625 474.046875 444.339844 469.3125 441.394531 467 L 410.183594 441.21875 L 398.308594 398.394531 L 579.269531 398.394531 C 596.402344 398.394531 610.273438 384.507812 610.273438 367.355469 L 610.273438 65.691406 C 610.273438 48.542969 596.402344 34.652344 579.269531 34.652344 Z M 579.269531 34.652344 " fill-opacity="1" fill-rule="nonzero"/></g><path fill="#a31d4c" d="M 140.84375 80.109375 C 140.84375 80.597656 140.75 81.066406 140.5625 81.515625 C 140.378906 81.96875 140.113281 82.367188 139.765625 82.710938 C 139.421875 83.058594 139.023438 83.324219 138.574219 83.511719 C 138.121094 83.695312 137.652344 83.789062 137.164062 83.789062 C 136.679688 83.789062 136.207031 83.695312 135.757812 83.511719 C 135.308594 83.324219 134.910156 83.058594 134.566406 82.710938 C 134.21875 82.367188 133.953125 81.96875 133.769531 81.515625 C 133.582031 81.066406 133.488281 80.597656 133.488281 80.109375 C 133.488281 79.621094 133.582031 79.148438 133.769531 78.699219 C 133.953125 78.246094 134.21875 77.847656 134.566406 77.503906 C 134.910156 77.160156 135.308594 76.890625 135.757812 76.707031 C 136.207031 76.519531 136.679688 76.425781 137.164062 76.425781 C 137.652344 76.425781 138.121094 76.519531 138.574219 76.707031 C 139.023438 76.890625 139.421875 77.160156 139.765625 77.503906 C 140.113281 77.847656 140.378906 78.246094 140.5625 78.699219 C 140.75 79.148438 140.84375 79.621094 140.84375 80.109375 Z M 140.84375 80.109375 " fill-opacity="1" fill-rule="nonzero"/><path fill="#f4d681" d="M 150.195312 80.109375 C 150.195312 80.597656 150.101562 81.066406 149.917969 81.515625 C 149.730469 81.96875 149.464844 82.367188 149.121094 82.710938 C 148.773438 83.058594 148.375 83.324219 147.925781 83.511719 C 147.476562 83.695312 147.007812 83.789062 146.519531 83.789062 C 146.03125 83.789062 145.5625 83.695312 145.109375 83.511719 C 144.660156 83.324219 144.261719 83.058594 143.917969 82.710938 C 143.574219 82.367188 143.308594 81.96875 143.121094 81.515625 C 142.933594 81.066406 142.839844 80.597656 142.839844 80.109375 C 142.839844 79.621094 142.933594 79.148438 143.121094 78.699219 C 143.308594 78.246094 143.574219 77.847656 143.917969 77.503906 C 144.261719 77.160156 144.660156 76.890625 145.109375 76.707031 C 145.5625 76.519531 146.03125 76.425781 146.519531 76.425781 C 147.007812 76.425781 147.476562 76.519531 147.925781 76.707031 C 148.375 76.890625 148.773438 77.160156 149.121094 77.503906 C 149.464844 77.847656 149.730469 78.246094 149.917969 78.699219 C 150.101562 79.148438 150.195312 79.621094 150.195312 80.109375 Z M 150.195312 80.109375 " fill-opacity="1" fill-rule="nonzero"/><path fill="#00694f" d="M 159.761719 80.109375 C 159.761719 80.597656 159.667969 81.066406 159.480469 81.515625 C 159.292969 81.96875 159.027344 82.367188 158.683594 82.710938 C 158.335938 83.058594 157.941406 83.324219 157.488281 83.511719 C 157.039062 83.695312 156.570312 83.789062 156.082031 83.789062 C 155.59375 83.789062 155.125 83.695312 154.675781 83.511719 C 154.222656 83.324219 153.824219 83.058594 153.480469 82.710938 C 153.136719 82.367188 152.871094 81.96875 152.683594 81.515625 C 152.496094 81.066406 152.402344 80.597656 152.402344 80.109375 C 152.402344 79.621094 152.496094 79.148438 152.683594 78.699219 C 152.871094 78.246094 153.136719 77.847656 153.480469 77.503906 C 153.824219 77.160156 154.222656 76.890625 154.675781 76.707031 C 155.125 76.519531 155.59375 76.425781 156.082031 76.425781 C 156.570312 76.425781 157.039062 76.519531 157.488281 76.707031 C 157.941406 76.890625 158.335938 77.160156 158.683594 77.503906 C 159.027344 77.847656 159.292969 78.246094 159.480469 78.699219 C 159.667969 79.148438 159.761719 79.621094 159.761719 80.109375 Z M 159.761719 80.109375 " fill-opacity="1" fill-rule="nonzero"/><path fill="#606161" d="M 573.492188 73.269531 L 569.601562 77.265625 L 565.714844 73.269531 L 563.71875 75.269531 L 567.605469 79.160156 L 563.71875 83.160156 L 565.714844 85.054688 L 569.601562 81.160156 L 573.492188 85.054688 L 575.488281 83.160156 L 571.601562 79.160156 L 575.488281 75.269531 Z M 573.492188 73.269531 " fill-opacity="1" fill-rule="nonzero"/><path fill="#606161" d="M 570.445312 94.628906 L 563.929688 101.046875 L 565.292969 102.414062 L 570.445312 97.152344 L 575.699219 102.414062 L 576.960938 101.046875 Z M 570.445312 94.628906 " fill-opacity="1" fill-rule="nonzero"/><path fill="#606161" d="M 570.445312 325.691406 L 565.292969 320.429688 L 563.929688 321.796875 L 570.445312 328.214844 L 576.960938 321.796875 L 575.699219 320.429688 Z M 570.445312 325.691406 " fill-opacity="1" fill-rule="nonzero"/><path fill="#606161" d="M 580.113281 58.433594 L 124.554688 58.433594 C 119.195312 58.433594 114.886719 62.746094 114.886719 68.113281 L 114.886719 335.160156 C 114.886719 340.527344 119.195312 344.839844 124.554688 344.839844 L 580.113281 344.839844 C 585.472656 344.839844 589.78125 340.527344 589.78125 335.160156 L 589.78125 68.113281 C 589.78125 62.851562 585.472656 58.433594 580.113281 58.433594 Z M 562.035156 68.324219 L 567.394531 68.324219 C 574.121094 68.324219 579.691406 73.792969 579.691406 80.632812 L 579.691406 88.210938 L 562.035156 88.210938 Z M 562.035156 90.945312 L 579.585938 90.945312 L 579.585938 106.097656 L 562.035156 106.097656 Z M 562.035156 108.832031 L 579.585938 108.832031 L 579.585938 122.511719 L 562.035156 122.511719 Z M 562.035156 165.019531 L 579.585938 165.019531 L 579.585938 313.484375 L 562.035156 313.484375 Z M 559.304688 335.054688 L 137.375 335.054688 C 130.652344 335.054688 125.082031 329.582031 125.082031 322.742188 L 125.082031 90.945312 L 559.304688 90.945312 Z M 559.304688 88.105469 L 125.082031 88.105469 L 125.082031 80.527344 C 125.082031 73.792969 130.546875 68.21875 137.375 68.21875 L 559.304688 68.21875 Z M 567.394531 335.054688 L 562.035156 335.054688 L 562.035156 316.21875 L 579.585938 316.21875 L 579.585938 322.742188 C 579.585938 329.582031 574.121094 335.054688 567.394531 335.054688 Z M 567.394531 335.054688 " fill-opacity="1" fill-rule="nonzero"/><path fill="#545454" d="M 144.621094 348.195312 L 144.863281 349.960938 L 137.941406 350.921875 L 137.699219 349.15625 L 139.226562 340.742188 L 139.710938 337.933594 L 140.917969 340.5 Z M 144.621094 348.195312 " fill-opacity="1" fill-rule="nonzero"/><path fill="#f1c158" d="M 144.621094 348.195312 L 158.945312 455.699219 L 152.023438 456.660156 L 137.699219 349.15625 L 139.066406 349.71875 L 140.195312 348.835938 L 141.402344 349.398438 L 142.527344 348.515625 L 143.574219 348.996094 Z M 144.621094 348.195312 " fill-opacity="1" fill-rule="nonzero"/><path fill="#f1c158" d="M 140.917969 340.5 L 139.226562 340.742188 L 139.710938 337.933594 Z M 140.917969 340.5 " fill-opacity="1" fill-rule="nonzero"/><path fill="#545454" d="M 162.808594 362.625 L 162.726562 364.390625 L 155.726562 363.988281 L 155.808594 362.226562 L 158.945312 354.207031 L 159.910156 351.644531 L 160.636719 354.289062 Z M 162.808594 362.625 " fill-opacity="1" fill-rule="nonzero"/><path fill="#f1c158" d="M 162.808594 362.625 L 157.09375 470.929688 L 150.09375 470.527344 L 155.808594 362.226562 L 157.015625 362.945312 L 157.09375 363.027344 L 158.300781 362.386719 L 159.429688 363.105469 L 160.714844 362.464844 L 161.601562 363.1875 Z M 162.808594 362.625 " fill-opacity="1" fill-rule="nonzero"/><path fill="#f1c158" d="M 160.636719 354.289062 L 158.945312 354.207031 L 159.910156 351.644531 Z M 160.636719 354.289062 " fill-opacity="1" fill-rule="nonzero"/><path fill="#a31d4c" d="M 167.558594 348.835938 L 166.992188 352.765625 C 166.992188 352.84375 167.074219 352.925781 167.15625 352.925781 L 169.167969 352.765625 C 169.246094 352.765625 169.328125 352.683594 169.246094 352.605469 L 168.199219 348.757812 C 168.121094 348.4375 167.636719 348.515625 167.558594 348.835938 Z M 167.558594 348.835938 " fill-opacity="1" fill-rule="nonzero"/><path fill="#545454" d="M 168.765625 351.644531 L 167.394531 351.722656 C 167.15625 351.722656 166.914062 351.882812 166.914062 352.125 L 165.144531 359.339844 L 165.304688 361.101562 L 172.304688 360.621094 L 172.144531 358.859375 L 169.328125 351.964844 C 169.246094 351.722656 169.003906 351.5625 168.765625 351.644531 Z M 168.765625 351.644531 " fill-opacity="1" fill-rule="nonzero"/><path fill="#a31d4c" d="M 172.144531 358.859375 L 179.871094 467.082031 L 172.867188 467.5625 L 165.144531 359.339844 L 167.636719 359.179688 L 169.972656 359.019531 Z M 172.144531 358.859375 " fill-opacity="1" fill-rule="nonzero"/><path fill="#545454" d="M 170.214844 355.25 L 166.589844 355.570312 C 165.625 355.652344 164.980469 356.453125 164.980469 357.414062 L 165.144531 359.339844 L 172.144531 358.777344 L 171.984375 356.855469 C 171.902344 355.890625 171.097656 355.25 170.214844 355.25 Z M 170.214844 355.25 " fill-opacity="1" fill-rule="nonzero"/><path fill="#ffffff" d="M 179.628906 463.394531 L 172.628906 463.957031 L 172.867188 467.5625 L 179.871094 467.082031 Z M 179.628906 463.394531 " fill-opacity="1" fill-rule="nonzero"/><g clip-path="url(#77fd25ca29)"><path fill="#00694f" d="M 182.367188 336.652344 L 181.238281 340.417969 C 181.238281 340.5 181.238281 340.582031 181.320312 340.582031 L 183.332031 340.742188 C 183.410156 340.742188 183.492188 340.660156 183.492188 340.582031 L 182.929688 336.652344 C 182.929688 336.332031 182.445312 336.332031 182.367188 336.652344 Z M 182.367188 336.652344 " fill-opacity="1" fill-rule="nonzero"/></g><path fill="#545454" d="M 183.171875 339.539062 L 181.800781 339.457031 C 181.5625 339.457031 181.320312 339.617188 181.238281 339.777344 L 178.503906 346.671875 L 178.421875 348.4375 L 185.421875 348.917969 L 185.503906 347.152344 L 183.652344 339.9375 C 183.652344 339.777344 183.410156 339.617188 183.171875 339.539062 Z M 183.171875 339.539062 " fill-opacity="1" fill-rule="nonzero"/><path fill="#00694f" d="M 185.503906 347.234375 L 178.261719 455.457031 L 171.339844 454.976562 L 178.503906 346.753906 L 180.996094 346.914062 L 183.332031 347.074219 Z M 185.503906 347.234375 " fill-opacity="1" fill-rule="nonzero"/><path fill="#545454" d="M 184.054688 343.386719 L 180.433594 343.144531 C 179.46875 343.144531 178.664062 343.785156 178.664062 344.75 L 178.503906 346.671875 L 185.503906 347.152344 L 185.664062 345.230469 C 185.664062 344.269531 184.941406 343.464844 184.054688 343.386719 Z M 184.054688 343.386719 " fill-opacity="1" fill-rule="nonzero"/><path fill="#ffffff" d="M 178.503906 451.769531 L 171.582031 451.371094 L 171.339844 454.976562 L 178.261719 455.457031 Z M 178.503906 451.769531 " fill-opacity="1" fill-rule="nonzero"/><path fill="#a31d4c" d="M 196.046875 354.128906 L 194.355469 357.734375 C 194.355469 357.816406 194.355469 357.894531 194.4375 357.894531 L 196.449219 358.378906 C 196.53125 358.378906 196.609375 358.378906 196.609375 358.296875 L 196.609375 354.367188 C 196.691406 353.96875 196.207031 353.808594 196.046875 354.128906 Z M 196.046875 354.128906 " fill-opacity="1" fill-rule="nonzero"/><path fill="#545454" d="M 196.449219 357.175781 L 195.082031 356.855469 C 194.839844 356.773438 194.597656 356.933594 194.4375 357.09375 L 190.734375 363.507812 L 190.332031 365.191406 L 197.171875 366.792969 L 197.574219 365.109375 L 196.933594 357.65625 C 196.851562 357.414062 196.691406 357.253906 196.449219 357.175781 Z M 196.449219 357.175781 " fill-opacity="1" fill-rule="nonzero"/><path fill="#a31d4c" d="M 197.574219 365.109375 L 173.433594 470.769531 L 166.671875 469.167969 L 190.734375 363.507812 L 193.148438 364.070312 L 195.484375 364.628906 Z M 197.574219 365.109375 " fill-opacity="1" fill-rule="nonzero"/><path fill="#545454" d="M 196.691406 361.101562 L 193.148438 360.300781 C 192.265625 360.058594 191.378906 360.703125 191.136719 361.582031 L 190.734375 363.507812 L 197.574219 365.109375 L 197.976562 363.1875 C 198.21875 362.226562 197.574219 361.34375 196.691406 361.101562 Z M 196.691406 361.101562 " fill-opacity="1" fill-rule="nonzero"/><path fill="#ffffff" d="M 174.238281 467.160156 L 167.476562 465.640625 L 166.671875 469.167969 L 173.433594 470.769531 Z M 174.238281 467.160156 " fill-opacity="1" fill-rule="nonzero"/><g clip-path="url(#f38de98e1e)"><path fill="#545454" d="M 178.824219 473.894531 L 157.898438 473.894531 C 145.265625 473.894531 135.042969 463.714844 135.042969 451.128906 L 135.042969 386.996094 L 201.679688 386.996094 L 201.679688 451.046875 C 201.679688 463.632812 191.460938 473.894531 178.824219 473.894531 Z M 178.824219 473.894531 " fill-opacity="1" fill-rule="nonzero"/></g><g clip-path="url(#a15e27cbeb)"><path fill="#545454" d="M 506.714844 473.558594 L 537.472656 473.558594 C 550.949219 473.558594 561.835938 462.695312 561.835938 449.242188 L 561.835938 388.796875 L 482.347656 388.796875 L 482.347656 449.328125 C 482.347656 462.695312 493.320312 473.558594 506.714844 473.558594 Z M 506.714844 473.558594 " fill-opacity="1" fill-rule="nonzero"/></g><g clip-path="url(#acd8468eb5)"><path fill="#545454" d="M 482.347656 388.796875 C 482.347656 389.402344 483.125 389.917969 484.507812 390.4375 C 485.371094 390.78125 486.410156 391.039062 487.617188 391.296875 C 494.53125 392.851562 507.316406 393.796875 522.003906 393.796875 C 536.691406 393.796875 549.566406 392.765625 556.390625 391.296875 C 557.6875 391.039062 558.726562 390.695312 559.503906 390.4375 C 560.886719 389.917969 561.664062 389.402344 561.664062 388.796875 C 561.664062 386.039062 543.863281 383.710938 521.917969 383.710938 C 500.148438 383.710938 482.347656 385.953125 482.347656 388.796875 Z M 482.347656 388.796875 " fill-opacity="1" fill-rule="nonzero"/></g><path fill="#5b412f" d="M 484.59375 390.4375 C 485.457031 390.78125 486.496094 391.039062 487.707031 391.296875 C 494.617188 392.851562 507.402344 393.796875 522.09375 393.796875 C 536.78125 393.796875 549.652344 392.765625 556.480469 391.296875 C 557.773438 391.039062 558.8125 390.695312 559.589844 390.4375 C 554.230469 388.453125 539.457031 387.074219 522.09375 387.074219 C 504.726562 387.074219 489.953125 388.453125 484.59375 390.4375 Z M 484.59375 390.4375 " fill-opacity="1" fill-rule="nonzero"/><g clip-path="url(#8e7743e731)"><path fill="#545454" d="M 486.925781 400.957031 C 483.386719 400.957031 479.929688 400.4375 476.386719 400.609375 C 472.84375 400.871094 468.699219 401.558594 466.277344 404.40625 C 462.648438 408.542969 463.167969 414.40625 463.339844 419.496094 C 463.425781 422.339844 463.167969 425.269531 463.167969 428.117188 C 463.167969 431.738281 463.167969 435.359375 463.425781 438.980469 C 463.6875 442.601562 463.945312 446.222656 466.539062 449.070312 C 468.179688 450.878906 470.597656 452 473.015625 452.519531 C 477.769531 453.554688 482.519531 452.777344 487.359375 452.605469 C 489.691406 452.519531 492.023438 450.621094 491.9375 448.035156 C 491.851562 445.707031 489.953125 443.378906 487.359375 443.464844 C 483.816406 443.636719 480.273438 444.15625 476.644531 443.894531 C 476.386719 443.894531 476.128906 443.808594 475.867188 443.808594 C 474.917969 443.722656 476.992188 443.984375 476.128906 443.808594 C 475.695312 443.722656 475.351562 443.636719 474.917969 443.550781 C 474.484375 443.464844 474.054688 443.292969 473.621094 443.121094 C 473.105469 442.949219 473.96875 443.035156 474.140625 443.292969 C 474.054688 443.207031 473.535156 442.949219 473.363281 442.863281 C 472.84375 442.601562 472.929688 442.257812 473.621094 443.121094 C 473.535156 443.035156 473.363281 442.863281 473.277344 442.777344 C 473.191406 442.6875 473.015625 442.515625 472.929688 442.429688 C 473.707031 442.863281 473.449219 443.292969 473.191406 442.6875 C 472.84375 441.914062 473.277344 442.777344 473.191406 442.863281 C 473.191406 442.863281 473.015625 442.257812 472.929688 442.171875 C 472.84375 441.828125 472.671875 441.394531 472.671875 441.050781 C 472.671875 442.171875 472.671875 440.621094 472.671875 440.359375 C 472.152344 433.894531 472.328125 427.425781 472.414062 420.960938 C 472.414062 419.148438 472.328125 417.339844 472.238281 415.613281 C 472.238281 414.578125 472.238281 413.542969 472.328125 412.597656 C 472.328125 412.335938 472.414062 412.078125 472.414062 411.820312 C 472.414062 413.113281 472.328125 412.421875 472.414062 411.992188 C 472.5 411.476562 472.671875 411.042969 472.757812 410.527344 C 473.015625 409.664062 472.238281 411.476562 472.671875 410.785156 C 472.84375 410.527344 473.015625 410.269531 473.105469 410.007812 C 472.757812 410.699219 472.5 410.785156 472.84375 410.441406 C 472.929688 410.355469 473.015625 410.269531 473.191406 410.183594 C 472.757812 410.527344 472.671875 410.613281 473.105469 410.269531 C 473.96875 409.664062 472.238281 410.441406 473.277344 410.183594 C 473.707031 410.09375 474.054688 409.921875 474.484375 409.835938 C 474.746094 409.75 475.089844 409.75 475.351562 409.664062 C 475.867188 409.578125 475.78125 409.578125 475.175781 409.664062 C 475.4375 409.664062 475.78125 409.578125 476.042969 409.578125 C 479.671875 409.320312 483.386719 409.835938 487.015625 409.835938 C 489.347656 409.835938 491.679688 407.765625 491.59375 405.265625 C 491.335938 402.9375 489.433594 400.957031 486.925781 400.957031 Z M 486.925781 400.957031 " fill-opacity="1" fill-rule="nonzero"/></g><path fill="#a6a6a6" d="M 559.777344 564.441406 C 561.820312 573.644531 554.839844 582.417969 545.390625 582.417969 L 151.472656 582.417969 C 142.023438 582.417969 135.042969 573.644531 137.085938 564.441406 L 152.667969 493.726562 C 154.453125 485.464844 161.777344 479.585938 170.203125 479.585938 L 526.492188 479.585938 C 534.917969 479.585938 542.242188 485.464844 544.113281 493.726562 Z M 559.777344 564.441406 " fill-opacity="1" fill-rule="nonzero"/><g clip-path="url(#3b82159b74)"><path fill="#ffffff" d="M 395.722656 562.3125 L 272.449219 562.3125 L 273.558594 548.339844 L 395.128906 548.339844 Z M 268.363281 548.425781 L 240.863281 548.425781 L 239.332031 562.398438 L 267.257812 562.398438 Z M 427.734375 548.425781 L 400.238281 548.425781 L 401.003906 562.398438 L 428.925781 562.398438 Z M 235.671875 548.425781 L 212.175781 548.425781 L 210.21875 562.398438 L 234.054688 562.398438 Z M 456.425781 548.425781 L 432.929688 548.425781 L 434.121094 562.398438 L 457.957031 562.398438 Z M 485.03125 548.425781 L 461.53125 548.425781 L 463.152344 562.398438 L 486.988281 562.398438 Z M 513.636719 548.425781 L 490.136719 548.425781 L 492.179688 562.398438 L 516.019531 562.398438 Z M 542.242188 548.425781 L 518.828125 548.425781 L 521.210938 562.398438 L 545.050781 562.398438 Z M 206.980469 548.425781 L 183.570312 548.425781 L 181.1875 562.398438 L 205.023438 562.398438 Z M 178.375 548.425781 L 154.964844 548.425781 L 152.242188 562.398438 L 176.078125 562.398438 Z M 185.101562 532.75 L 158.03125 532.75 L 155.644531 544.675781 L 183.058594 544.675781 Z M 539.347656 532.75 L 483.414062 532.75 L 485.117188 544.675781 L 541.730469 544.675781 Z M 238.394531 532.40625 L 217.367188 532.40625 L 215.664062 544.675781 L 236.949219 544.675781 Z M 211.75 532.40625 L 190.804688 532.40625 L 188.761719 544.675781 L 210.046875 544.675781 Z M 264.957031 532.40625 L 243.929688 532.40625 L 242.566406 544.675781 L 263.851562 544.675781 Z M 291.605469 532.40625 L 270.578125 532.40625 L 269.554688 544.675781 L 290.839844 544.675781 Z M 318.167969 532.40625 L 297.140625 532.40625 L 296.457031 544.675781 L 317.742188 544.675781 Z M 344.8125 532.40625 L 323.785156 532.40625 L 323.445312 544.675781 L 344.730469 544.675781 Z M 371.375 532.40625 L 350.347656 532.40625 L 350.347656 544.675781 L 371.632812 544.675781 Z M 398.023438 532.40625 L 376.996094 532.40625 L 377.335938 544.675781 L 398.617188 544.675781 Z M 424.585938 532.40625 L 403.554688 532.40625 L 404.238281 544.675781 L 425.519531 544.675781 Z M 451.148438 532.40625 L 430.117188 532.40625 L 431.140625 544.675781 L 452.421875 544.675781 Z M 477.792969 532.40625 L 456.765625 532.40625 L 458.128906 544.675781 L 479.410156 544.675781 Z M 536.195312 517.074219 L 494.308594 517.074219 L 496.097656 528.574219 L 538.496094 528.574219 Z M 203.066406 517.074219 L 161.09375 517.074219 L 158.796875 528.574219 L 201.277344 528.574219 Z M 255.082031 516.902344 L 234.394531 516.902344 L 232.949219 528.746094 L 253.890625 528.746094 Z M 229.03125 516.902344 L 208.34375 516.902344 L 206.554688 528.746094 L 227.5 528.746094 Z M 281.046875 516.902344 L 260.359375 516.902344 L 259.253906 528.746094 L 280.195312 528.746094 Z M 307.015625 516.902344 L 286.328125 516.902344 L 285.5625 528.746094 L 306.503906 528.746094 Z M 332.980469 516.902344 L 312.292969 516.902344 L 311.867188 528.746094 L 332.808594 528.746094 Z M 359.03125 516.902344 L 338.34375 516.902344 L 338.171875 528.746094 L 359.117188 528.746094 Z M 384.996094 516.902344 L 364.308594 516.902344 L 364.480469 528.746094 L 385.421875 528.746094 Z M 410.964844 516.902344 L 390.277344 516.902344 L 390.785156 528.746094 L 411.730469 528.746094 Z M 437.015625 516.902344 L 416.328125 516.902344 L 417.179688 528.746094 L 438.121094 528.746094 Z M 462.980469 516.902344 L 442.292969 516.902344 L 443.484375 528.746094 L 464.425781 528.746094 Z M 488.945312 516.902344 L 468.257812 516.902344 L 469.792969 528.746094 L 490.734375 528.746094 Z M 196 502.078125 L 164.074219 502.078125 L 161.859375 513.238281 L 194.210938 513.238281 Z M 247.929688 501.90625 L 227.585938 501.90625 L 226.050781 513.410156 L 246.652344 513.410156 Z M 221.964844 501.90625 L 201.617188 501.90625 L 199.832031 513.410156 L 220.433594 513.410156 Z M 273.8125 501.90625 L 253.464844 501.90625 L 252.273438 513.410156 L 272.875 513.410156 Z M 299.691406 501.90625 L 279.347656 501.90625 L 278.496094 513.410156 L 299.097656 513.410156 Z M 325.660156 501.90625 L 305.3125 501.90625 L 304.800781 513.410156 L 325.402344 513.410156 Z M 351.539062 501.90625 L 331.191406 501.90625 L 330.9375 513.410156 L 351.539062 513.410156 Z M 377.421875 501.90625 L 357.074219 501.90625 L 357.160156 513.410156 L 377.761719 513.410156 Z M 403.386719 501.90625 L 383.039062 501.90625 L 383.464844 513.410156 L 404.066406 513.410156 Z M 429.265625 501.90625 L 408.921875 501.90625 L 409.6875 513.410156 L 430.289062 513.410156 Z M 455.234375 501.90625 L 434.886719 501.90625 L 435.90625 513.410156 L 456.511719 513.410156 Z M 481.113281 501.90625 L 460.765625 501.90625 L 462.128906 513.410156 L 482.730469 513.410156 Z M 506.996094 501.90625 L 486.648438 501.90625 L 488.351562 513.410156 L 508.953125 513.410156 Z M 532.960938 501.90625 L 512.613281 501.90625 L 514.65625 513.410156 L 535.257812 513.410156 Z M 530.492188 489.128906 L 166.714844 489.128906 L 164.839844 498.5 L 532.363281 498.5 Z M 557.5625 577.476562 C 554.585938 581.226562 550.074219 583.355469 545.304688 583.355469 L 151.472656 583.355469 C 146.707031 583.355469 142.195312 581.226562 139.214844 577.476562 C 136.234375 573.730469 135.128906 568.957031 136.148438 564.273438 L 151.730469 493.558594 C 153.601562 484.867188 161.433594 478.648438 170.203125 478.648438 L 526.492188 478.648438 C 535.429688 478.648438 543.089844 484.78125 545.050781 493.558594 L 560.628906 564.273438 C 561.734375 568.871094 560.542969 573.730469 557.5625 577.476562 Z M 138.617188 572.707031 L 558.160156 572.707031 C 559.183594 570.148438 559.4375 567.339844 558.839844 564.613281 L 543.261719 493.898438 C 541.558594 485.976562 534.664062 480.523438 526.574219 480.523438 L 170.203125 480.523438 C 162.285156 480.523438 155.21875 486.144531 153.515625 493.898438 L 137.9375 564.613281 C 137.34375 567.339844 137.597656 570.148438 138.617188 572.707031 Z M 138.617188 572.707031 " fill-opacity="1" fill-rule="nonzero"/></g></svg>