<svg xmlns="http://www.w3.org/2000/svg" xmlns:xlink="http://www.w3.org/1999/xlink" width="940" zoomAndPan="magnify" viewBox="0 0 705 591.000005" height="788" preserveAspectRatio="xMidYMid meet" version="1.0"><defs><g/><clipPath id="7300cc0702"><path d="M 135.042969 103.570312 L 148.519531 103.570312 L 148.519531 112.554688 L 135.042969 112.554688 Z M 135.042969 103.570312 " clip-rule="nonzero"/></clipPath></defs><path stroke-linecap="round" transform="matrix(0.749039, 0, 0, 0.748733, 140.001946, 122.792758)" fill="none" stroke-linejoin="miter" d="M 0.498044 0.000281007 L 535.287592 0.000281007 " stroke="#606161" stroke-width="1" stroke-opacity="1" stroke-miterlimit="4"/><g clip-path="url(#7300cc0702)"><path fill="#606161" d="M 135.054688 112.554688 L 148.507812 112.554688 L 148.507812 111.058594 L 135.054688 111.058594 Z M 135.054688 108.8125 L 148.507812 108.8125 L 148.507812 107.316406 L 135.054688 107.316406 Z M 135.054688 103.570312 L 135.054688 105.070312 L 148.507812 105.070312 L 148.507812 103.570312 Z M 135.054688 103.570312 " fill-opacity="1" fill-rule="nonzero"/></g><g fill="#606161" fill-opacity="1"><g transform="translate(387.008286, 112.127254)"><g><path d="M 6.34375 0 L 5.53125 0 L 5.53125 -3.328125 L 1.796875 -3.328125 L 1.796875 0 L 0.96875 0 L 0.96875 -7.078125 L 1.796875 -7.078125 L 1.796875 -4.0625 L 5.53125 -4.0625 L 5.53125 -7.078125 L 6.34375 -7.078125 Z M 6.34375 0 "/></g></g></g><g fill="#606161" fill-opacity="1"><g transform="translate(394.825331, 112.127254)"><g><path d="M 5.4375 -2.65625 C 5.4375 -1.789062 5.21875 -1.113281 4.78125 -0.625 C 4.34375 -0.144531 3.738281 0.09375 2.96875 0.09375 C 2.5 0.09375 2.078125 -0.015625 1.703125 -0.234375 C 1.335938 -0.460938 1.054688 -0.785156 0.859375 -1.203125 C 0.660156 -1.617188 0.5625 -2.101562 0.5625 -2.65625 C 0.5625 -3.519531 0.773438 -4.191406 1.203125 -4.671875 C 1.640625 -5.160156 2.242188 -5.40625 3.015625 -5.40625 C 3.753906 -5.40625 4.34375 -5.15625 4.78125 -4.65625 C 5.21875 -4.164062 5.4375 -3.5 5.4375 -2.65625 Z M 1.390625 -2.65625 C 1.390625 -1.976562 1.523438 -1.460938 1.796875 -1.109375 C 2.066406 -0.753906 2.46875 -0.578125 3 -0.578125 C 3.519531 -0.578125 3.914062 -0.753906 4.1875 -1.109375 C 4.46875 -1.460938 4.609375 -1.976562 4.609375 -2.65625 C 4.609375 -3.332031 4.46875 -3.84375 4.1875 -4.1875 C 3.914062 -4.539062 3.515625 -4.71875 2.984375 -4.71875 C 2.453125 -4.71875 2.050781 -4.546875 1.78125 -4.203125 C 1.519531 -3.859375 1.390625 -3.34375 1.390625 -2.65625 Z M 1.390625 -2.65625 "/></g></g></g><g fill="#606161" fill-opacity="1"><g transform="translate(401.314884, 112.127254)"><g><path d="M 7.625 0 L 7.625 -3.453125 C 7.625 -3.878906 7.53125 -4.195312 7.34375 -4.40625 C 7.164062 -4.613281 6.882812 -4.71875 6.5 -4.71875 C 6 -4.71875 5.628906 -4.570312 5.390625 -4.28125 C 5.148438 -4 5.03125 -3.5625 5.03125 -2.96875 L 5.03125 0 L 4.234375 0 L 4.234375 -3.453125 C 4.234375 -3.878906 4.140625 -4.195312 3.953125 -4.40625 C 3.773438 -4.613281 3.492188 -4.71875 3.109375 -4.71875 C 2.609375 -4.71875 2.238281 -4.566406 2 -4.265625 C 1.769531 -3.960938 1.65625 -3.46875 1.65625 -2.78125 L 1.65625 0 L 0.859375 0 L 0.859375 -5.3125 L 1.5 -5.3125 L 1.640625 -4.578125 L 1.671875 -4.578125 C 1.828125 -4.835938 2.039062 -5.039062 2.3125 -5.1875 C 2.59375 -5.332031 2.90625 -5.40625 3.25 -5.40625 C 4.070312 -5.40625 4.613281 -5.101562 4.875 -4.5 L 4.90625 -4.5 C 5.070312 -4.78125 5.300781 -5 5.59375 -5.15625 C 5.894531 -5.320312 6.238281 -5.40625 6.625 -5.40625 C 7.226562 -5.40625 7.675781 -5.25 7.96875 -4.9375 C 8.269531 -4.632812 8.421875 -4.144531 8.421875 -3.46875 L 8.421875 0 Z M 7.625 0 "/></g></g></g><g fill="#606161" fill-opacity="1"><g transform="translate(411.040802, 112.127254)"><g><path d="M 3.09375 0.09375 C 2.3125 0.09375 1.691406 -0.144531 1.234375 -0.625 C 0.785156 -1.101562 0.5625 -1.765625 0.5625 -2.609375 C 0.5625 -3.460938 0.769531 -4.140625 1.1875 -4.640625 C 1.613281 -5.148438 2.179688 -5.40625 2.890625 -5.40625 C 3.554688 -5.40625 4.082031 -5.1875 4.46875 -4.75 C 4.851562 -4.3125 5.046875 -3.734375 5.046875 -3.015625 L 5.046875 -2.515625 L 1.390625 -2.515625 C 1.410156 -1.890625 1.566406 -1.414062 1.859375 -1.09375 C 2.160156 -0.769531 2.582031 -0.609375 3.125 -0.609375 C 3.695312 -0.609375 4.265625 -0.726562 4.828125 -0.96875 L 4.828125 -0.25 C 4.535156 -0.125 4.265625 -0.0351562 4.015625 0.015625 C 3.765625 0.0664062 3.457031 0.09375 3.09375 0.09375 Z M 2.875 -4.734375 C 2.445312 -4.734375 2.109375 -4.59375 1.859375 -4.3125 C 1.609375 -4.039062 1.457031 -3.65625 1.40625 -3.15625 L 4.1875 -3.15625 C 4.1875 -3.664062 4.070312 -4.054688 3.84375 -4.328125 C 3.613281 -4.597656 3.289062 -4.734375 2.875 -4.734375 Z M 2.875 -4.734375 "/></g></g></g><g fill="#606161" fill-opacity="1"><g transform="translate(445.393615, 112.127254)"><g><path d="M 5.421875 0 L 4.546875 -2.25 L 1.703125 -2.25 L 0.828125 0 L 0 0 L 2.796875 -7.109375 L 3.5 -7.109375 L 6.28125 0 Z M 4.28125 -3 L 3.46875 -5.1875 C 3.351562 -5.46875 3.242188 -5.804688 3.140625 -6.203125 C 3.066406 -5.898438 2.960938 -5.5625 2.828125 -5.1875 L 2 -3 Z M 4.28125 -3 "/></g></g></g><g fill="#606161" fill-opacity="1"><g transform="translate(452.169015, 112.127254)"><g><path d="M 3.328125 -5.390625 C 4.023438 -5.390625 4.566406 -5.148438 4.953125 -4.671875 C 5.335938 -4.203125 5.53125 -3.53125 5.53125 -2.65625 C 5.53125 -1.789062 5.332031 -1.113281 4.9375 -0.625 C 4.550781 -0.144531 4.015625 0.09375 3.328125 0.09375 C 2.984375 0.09375 2.664062 0.03125 2.375 -0.09375 C 2.09375 -0.21875 1.851562 -0.414062 1.65625 -0.6875 L 1.59375 -0.6875 L 1.421875 0 L 0.859375 0 L 0.859375 -7.53125 L 1.65625 -7.53125 L 1.65625 -5.703125 C 1.65625 -5.296875 1.644531 -4.929688 1.625 -4.609375 L 1.65625 -4.609375 C 2.03125 -5.128906 2.585938 -5.390625 3.328125 -5.390625 Z M 3.203125 -4.71875 C 2.660156 -4.71875 2.265625 -4.5625 2.015625 -4.25 C 1.773438 -3.9375 1.65625 -3.40625 1.65625 -2.65625 C 1.65625 -1.914062 1.78125 -1.382812 2.03125 -1.0625 C 2.28125 -0.738281 2.675781 -0.578125 3.21875 -0.578125 C 3.71875 -0.578125 4.085938 -0.753906 4.328125 -1.109375 C 4.566406 -1.472656 4.6875 -1.992188 4.6875 -2.671875 C 4.6875 -3.359375 4.566406 -3.867188 4.328125 -4.203125 C 4.085938 -4.546875 3.710938 -4.71875 3.203125 -4.71875 Z M 3.203125 -4.71875 "/></g></g></g><g fill="#606161" fill-opacity="1"><g transform="translate(458.745776, 112.127254)"><g><path d="M 5.4375 -2.65625 C 5.4375 -1.789062 5.21875 -1.113281 4.78125 -0.625 C 4.34375 -0.144531 3.738281 0.09375 2.96875 0.09375 C 2.5 0.09375 2.078125 -0.015625 1.703125 -0.234375 C 1.335938 -0.460938 1.054688 -0.785156 0.859375 -1.203125 C 0.660156 -1.617188 0.5625 -2.101562 0.5625 -2.65625 C 0.5625 -3.519531 0.773438 -4.191406 1.203125 -4.671875 C 1.640625 -5.160156 2.242188 -5.40625 3.015625 -5.40625 C 3.753906 -5.40625 4.34375 -5.15625 4.78125 -4.65625 C 5.21875 -4.164062 5.4375 -3.5 5.4375 -2.65625 Z M 1.390625 -2.65625 C 1.390625 -1.976562 1.523438 -1.460938 1.796875 -1.109375 C 2.066406 -0.753906 2.46875 -0.578125 3 -0.578125 C 3.519531 -0.578125 3.914062 -0.753906 4.1875 -1.109375 C 4.46875 -1.460938 4.609375 -1.976562 4.609375 -2.65625 C 4.609375 -3.332031 4.46875 -3.84375 4.1875 -4.1875 C 3.914062 -4.539062 3.515625 -4.71875 2.984375 -4.71875 C 2.453125 -4.71875 2.050781 -4.546875 1.78125 -4.203125 C 1.519531 -3.859375 1.390625 -3.34375 1.390625 -2.65625 Z M 1.390625 -2.65625 "/></g></g></g><g fill="#606161" fill-opacity="1"><g transform="translate(465.23533, 112.127254)"><g><path d="M 1.609375 -5.3125 L 1.609375 -1.859375 C 1.609375 -1.429688 1.707031 -1.109375 1.90625 -0.890625 C 2.101562 -0.679688 2.410156 -0.578125 2.828125 -0.578125 C 3.378906 -0.578125 3.785156 -0.726562 4.046875 -1.03125 C 4.304688 -1.332031 4.4375 -1.828125 4.4375 -2.515625 L 4.4375 -5.3125 L 5.234375 -5.3125 L 5.234375 0 L 4.578125 0 L 4.453125 -0.71875 L 4.40625 -0.71875 C 4.25 -0.445312 4.023438 -0.242188 3.734375 -0.109375 C 3.441406 0.0234375 3.109375 0.09375 2.734375 0.09375 C 2.085938 0.09375 1.601562 -0.0546875 1.28125 -0.359375 C 0.957031 -0.671875 0.796875 -1.164062 0.796875 -1.84375 L 0.796875 -5.3125 Z M 1.609375 -5.3125 "/></g></g></g><g fill="#606161" fill-opacity="1"><g transform="translate(471.82178, 112.127254)"><g><path d="M 2.5625 -0.5625 C 2.707031 -0.5625 2.84375 -0.570312 2.96875 -0.59375 C 3.101562 -0.613281 3.210938 -0.632812 3.296875 -0.65625 L 3.296875 -0.046875 C 3.203125 -0.00390625 3.070312 0.0234375 2.90625 0.046875 C 2.738281 0.078125 2.585938 0.09375 2.453125 0.09375 C 1.421875 0.09375 0.90625 -0.445312 0.90625 -1.53125 L 0.90625 -4.6875 L 0.15625 -4.6875 L 0.15625 -5.078125 L 0.90625 -5.40625 L 1.25 -6.546875 L 1.71875 -6.546875 L 1.71875 -5.3125 L 3.25 -5.3125 L 3.25 -4.6875 L 1.71875 -4.6875 L 1.71875 -1.5625 C 1.71875 -1.238281 1.789062 -0.988281 1.9375 -0.8125 C 2.09375 -0.644531 2.300781 -0.5625 2.5625 -0.5625 Z M 2.5625 -0.5625 "/></g></g></g><g fill="#606161" fill-opacity="1"><g transform="translate(499.63234, 112.127254)"><g><path d="M 4 -6.453125 C 3.226562 -6.453125 2.613281 -6.191406 2.15625 -5.671875 C 1.707031 -5.148438 1.484375 -4.441406 1.484375 -3.546875 C 1.484375 -2.617188 1.703125 -1.898438 2.140625 -1.390625 C 2.578125 -0.890625 3.195312 -0.640625 4 -0.640625 C 4.488281 -0.640625 5.050781 -0.726562 5.6875 -0.90625 L 5.6875 -0.171875 C 5.195312 0.00390625 4.59375 0.09375 3.875 0.09375 C 2.832031 0.09375 2.023438 -0.21875 1.453125 -0.84375 C 0.890625 -1.476562 0.609375 -2.378906 0.609375 -3.546875 C 0.609375 -4.273438 0.742188 -4.914062 1.015625 -5.46875 C 1.285156 -6.019531 1.675781 -6.441406 2.1875 -6.734375 C 2.707031 -7.035156 3.316406 -7.1875 4.015625 -7.1875 C 4.753906 -7.1875 5.40625 -7.050781 5.96875 -6.78125 L 5.609375 -6.078125 C 5.078125 -6.328125 4.539062 -6.453125 4 -6.453125 Z M 4 -6.453125 "/></g></g></g><g fill="#606161" fill-opacity="1"><g transform="translate(506.38836, 112.127254)"><g><path d="M 5.4375 -2.65625 C 5.4375 -1.789062 5.21875 -1.113281 4.78125 -0.625 C 4.34375 -0.144531 3.738281 0.09375 2.96875 0.09375 C 2.5 0.09375 2.078125 -0.015625 1.703125 -0.234375 C 1.335938 -0.460938 1.054688 -0.785156 0.859375 -1.203125 C 0.660156 -1.617188 0.5625 -2.101562 0.5625 -2.65625 C 0.5625 -3.519531 0.773438 -4.191406 1.203125 -4.671875 C 1.640625 -5.160156 2.242188 -5.40625 3.015625 -5.40625 C 3.753906 -5.40625 4.34375 -5.15625 4.78125 -4.65625 C 5.21875 -4.164062 5.4375 -3.5 5.4375 -2.65625 Z M 1.390625 -2.65625 C 1.390625 -1.976562 1.523438 -1.460938 1.796875 -1.109375 C 2.066406 -0.753906 2.46875 -0.578125 3 -0.578125 C 3.519531 -0.578125 3.914062 -0.753906 4.1875 -1.109375 C 4.46875 -1.460938 4.609375 -1.976562 4.609375 -2.65625 C 4.609375 -3.332031 4.46875 -3.84375 4.1875 -4.1875 C 3.914062 -4.539062 3.515625 -4.71875 2.984375 -4.71875 C 2.453125 -4.71875 2.050781 -4.546875 1.78125 -4.203125 C 1.519531 -3.859375 1.390625 -3.34375 1.390625 -2.65625 Z M 1.390625 -2.65625 "/></g></g></g><g fill="#606161" fill-opacity="1"><g transform="translate(512.877914, 112.127254)"><g><path d="M 4.484375 0 L 4.484375 -3.4375 C 4.484375 -3.863281 4.382812 -4.179688 4.1875 -4.390625 C 3.988281 -4.609375 3.679688 -4.71875 3.265625 -4.71875 C 2.710938 -4.71875 2.304688 -4.566406 2.046875 -4.265625 C 1.785156 -3.972656 1.65625 -3.476562 1.65625 -2.78125 L 1.65625 0 L 0.859375 0 L 0.859375 -5.3125 L 1.5 -5.3125 L 1.640625 -4.578125 L 1.671875 -4.578125 C 1.835938 -4.835938 2.066406 -5.039062 2.359375 -5.1875 C 2.660156 -5.332031 2.992188 -5.40625 3.359375 -5.40625 C 4.003906 -5.40625 4.488281 -5.25 4.8125 -4.9375 C 5.132812 -4.632812 5.296875 -4.144531 5.296875 -3.46875 L 5.296875 0 Z M 4.484375 0 "/></g></g></g><g fill="#606161" fill-opacity="1"><g transform="translate(519.464364, 112.127254)"><g><path d="M 2.5625 -0.5625 C 2.707031 -0.5625 2.84375 -0.570312 2.96875 -0.59375 C 3.101562 -0.613281 3.210938 -0.632812 3.296875 -0.65625 L 3.296875 -0.046875 C 3.203125 -0.00390625 3.070312 0.0234375 2.90625 0.046875 C 2.738281 0.078125 2.585938 0.09375 2.453125 0.09375 C 1.421875 0.09375 0.90625 -0.445312 0.90625 -1.53125 L 0.90625 -4.6875 L 0.15625 -4.6875 L 0.15625 -5.078125 L 0.90625 -5.40625 L 1.25 -6.546875 L 1.71875 -6.546875 L 1.71875 -5.3125 L 3.25 -5.3125 L 3.25 -4.6875 L 1.71875 -4.6875 L 1.71875 -1.5625 C 1.71875 -1.238281 1.789062 -0.988281 1.9375 -0.8125 C 2.09375 -0.644531 2.300781 -0.5625 2.5625 -0.5625 Z M 2.5625 -0.5625 "/></g></g></g><g fill="#606161" fill-opacity="1"><g transform="translate(523.463662, 112.127254)"><g><path d="M 4.125 0 L 3.953125 -0.75 L 3.921875 -0.75 C 3.648438 -0.414062 3.382812 -0.191406 3.125 -0.078125 C 2.863281 0.0351562 2.535156 0.09375 2.140625 0.09375 C 1.617188 0.09375 1.207031 -0.0390625 0.90625 -0.3125 C 0.601562 -0.582031 0.453125 -0.96875 0.453125 -1.46875 C 0.453125 -2.539062 1.3125 -3.101562 3.03125 -3.15625 L 3.921875 -3.1875 L 3.921875 -3.515625 C 3.921875 -3.929688 3.832031 -4.238281 3.65625 -4.4375 C 3.476562 -4.632812 3.191406 -4.734375 2.796875 -4.734375 C 2.359375 -4.734375 1.859375 -4.597656 1.296875 -4.328125 L 1.046875 -4.9375 C 1.304688 -5.082031 1.59375 -5.191406 1.90625 -5.265625 C 2.21875 -5.347656 2.53125 -5.390625 2.84375 -5.390625 C 3.476562 -5.390625 3.945312 -5.25 4.25 -4.96875 C 4.5625 -4.6875 4.71875 -4.238281 4.71875 -3.625 L 4.71875 0 Z M 2.296875 -0.5625 C 2.796875 -0.5625 3.1875 -0.695312 3.46875 -0.96875 C 3.757812 -1.25 3.90625 -1.632812 3.90625 -2.125 L 3.90625 -2.609375 L 3.109375 -2.578125 C 2.460938 -2.554688 2 -2.457031 1.71875 -2.28125 C 1.4375 -2.101562 1.296875 -1.828125 1.296875 -1.453125 C 1.296875 -1.160156 1.382812 -0.9375 1.5625 -0.78125 C 1.738281 -0.632812 1.984375 -0.5625 2.296875 -0.5625 Z M 2.296875 -0.5625 "/></g></g></g><g fill="#606161" fill-opacity="1"><g transform="translate(529.478419, 112.127254)"><g><path d="M 2.96875 0.09375 C 2.207031 0.09375 1.613281 -0.140625 1.1875 -0.609375 C 0.769531 -1.085938 0.5625 -1.757812 0.5625 -2.625 C 0.5625 -3.507812 0.773438 -4.191406 1.203125 -4.671875 C 1.628906 -5.160156 2.238281 -5.40625 3.03125 -5.40625 C 3.28125 -5.40625 3.53125 -5.375 3.78125 -5.3125 C 4.039062 -5.257812 4.242188 -5.195312 4.390625 -5.125 L 4.140625 -4.453125 C 3.960938 -4.515625 3.769531 -4.566406 3.5625 -4.609375 C 3.351562 -4.660156 3.171875 -4.6875 3.015625 -4.6875 C 1.929688 -4.6875 1.390625 -4 1.390625 -2.625 C 1.390625 -1.976562 1.519531 -1.476562 1.78125 -1.125 C 2.050781 -0.78125 2.441406 -0.609375 2.953125 -0.609375 C 3.398438 -0.609375 3.851562 -0.703125 4.3125 -0.890625 L 4.3125 -0.171875 C 3.957031 0.00390625 3.507812 0.09375 2.96875 0.09375 Z M 2.96875 0.09375 "/></g></g></g><g fill="#606161" fill-opacity="1"><g transform="translate(534.698621, 112.127254)"><g><path d="M 2.5625 -0.5625 C 2.707031 -0.5625 2.84375 -0.570312 2.96875 -0.59375 C 3.101562 -0.613281 3.210938 -0.632812 3.296875 -0.65625 L 3.296875 -0.046875 C 3.203125 -0.00390625 3.070312 0.0234375 2.90625 0.046875 C 2.738281 0.078125 2.585938 0.09375 2.453125 0.09375 C 1.421875 0.09375 0.90625 -0.445312 0.90625 -1.53125 L 0.90625 -4.6875 L 0.15625 -4.6875 L 0.15625 -5.078125 L 0.90625 -5.40625 L 1.25 -6.546875 L 1.71875 -6.546875 L 1.71875 -5.3125 L 3.25 -5.3125 L 3.25 -4.6875 L 1.71875 -4.6875 L 1.71875 -1.5625 C 1.71875 -1.238281 1.789062 -0.988281 1.9375 -0.8125 C 2.09375 -0.644531 2.300781 -0.5625 2.5625 -0.5625 Z M 2.5625 -0.5625 "/></g></g></g><g fill="#3980b3" fill-opacity="1"><g transform="translate(155.578651, 111.690061)"><g><path d="M 4.359375 -7.640625 C 5.535156 -7.640625 6.507812 -7.273438 7.28125 -6.546875 C 8.0625 -5.816406 8.453125 -4.898438 8.453125 -3.796875 C 8.453125 -2.691406 8.0625 -1.765625 7.28125 -1.015625 C 6.5 -0.273438 5.519531 0.09375 4.34375 0.09375 C 3.175781 0.09375 2.203125 -0.273438 1.421875 -1.015625 C 0.648438 -1.765625 0.265625 -2.691406 0.265625 -3.796875 C 0.265625 -4.898438 0.648438 -5.816406 1.421875 -6.546875 C 2.203125 -7.273438 3.179688 -7.640625 4.359375 -7.640625 Z M 4.375 -6.03125 C 3.78125 -6.03125 3.273438 -5.816406 2.859375 -5.390625 C 2.441406 -4.960938 2.234375 -4.429688 2.234375 -3.796875 C 2.234375 -3.160156 2.441406 -2.625 2.859375 -2.1875 C 3.285156 -1.75 3.789062 -1.53125 4.375 -1.53125 C 4.957031 -1.53125 5.453125 -1.75 5.859375 -2.1875 C 6.265625 -2.625 6.46875 -3.160156 6.46875 -3.796875 C 6.46875 -4.429688 6.265625 -4.960938 5.859375 -5.390625 C 5.453125 -5.816406 4.957031 -6.03125 4.375 -6.03125 Z M 4.375 -6.03125 "/></g></g></g><g fill="#3980b3" fill-opacity="1"><g transform="translate(164.840011, 111.690061)"><g><path d="M 0.765625 -7.578125 L 4.0625 -7.578125 C 5.03125 -7.578125 5.78125 -7.347656 6.3125 -6.890625 C 6.84375 -6.429688 7.109375 -5.78125 7.109375 -4.9375 C 7.109375 -4.050781 6.84375 -3.363281 6.3125 -2.875 C 5.78125 -2.382812 5.03125 -2.140625 4.0625 -2.140625 L 2.6875 -2.140625 L 2.6875 0 L 0.765625 0 Z M 2.6875 -6.0625 L 2.6875 -3.65625 L 3.96875 -3.65625 C 4.394531 -3.65625 4.722656 -3.757812 4.953125 -3.96875 C 5.179688 -4.175781 5.296875 -4.476562 5.296875 -4.875 C 5.296875 -5.257812 5.179688 -5.550781 4.953125 -5.75 C 4.722656 -5.957031 4.394531 -6.0625 3.96875 -6.0625 Z M 2.6875 -6.0625 "/></g></g></g><g fill="#3980b3" fill-opacity="1"><g transform="translate(172.747373, 111.690061)"><g><path d="M 6.6875 -6.0625 L 2.6875 -6.0625 L 2.6875 -4.5625 L 6.296875 -4.5625 L 6.296875 -3.046875 L 2.6875 -3.046875 L 2.6875 -1.515625 L 6.8125 -1.515625 L 6.8125 0 L 0.765625 0 L 0.765625 -7.578125 L 6.6875 -7.578125 Z M 6.6875 -6.0625 "/></g></g></g><g fill="#3980b3" fill-opacity="1"><g transform="translate(180.589748, 111.690061)"><g><path d="M 7.75 0 L 6.046875 0 L 2.5625 -4.671875 L 2.5625 0 L 0.765625 0 L 0.765625 -7.578125 L 2.453125 -7.578125 L 5.953125 -2.90625 L 5.953125 -7.578125 L 7.75 -7.578125 Z M 7.75 0 "/></g></g></g><g fill="#3980b3" fill-opacity="1"><g transform="translate(189.645298, 111.690061)"><g/></g></g><g fill="#3980b3" fill-opacity="1"><g transform="translate(192.699921, 111.690061)"><g><path d="M 5.328125 0 L 4.203125 -2.140625 L 2.6875 -2.140625 L 2.6875 0 L 0.765625 0 L 0.765625 -7.578125 L 4.140625 -7.578125 C 5.148438 -7.578125 5.925781 -7.347656 6.46875 -6.890625 C 7.019531 -6.429688 7.296875 -5.78125 7.296875 -4.9375 C 7.296875 -3.769531 6.835938 -2.957031 5.921875 -2.5 L 7.515625 0 Z M 2.6875 -3.65625 L 4.140625 -3.65625 C 4.566406 -3.65625 4.894531 -3.757812 5.125 -3.96875 C 5.351562 -4.175781 5.46875 -4.476562 5.46875 -4.875 C 5.46875 -5.257812 5.351562 -5.550781 5.125 -5.75 C 4.894531 -5.957031 4.566406 -6.0625 4.140625 -6.0625 L 2.6875 -6.0625 Z M 2.6875 -3.65625 "/></g></g></g><g fill="#3980b3" fill-opacity="1"><g transform="translate(201.083899, 111.690061)"><g><path d="M 6.6875 -6.0625 L 2.6875 -6.0625 L 2.6875 -4.5625 L 6.296875 -4.5625 L 6.296875 -3.046875 L 2.6875 -3.046875 L 2.6875 -1.515625 L 6.8125 -1.515625 L 6.8125 0 L 0.765625 0 L 0.765625 -7.578125 L 6.6875 -7.578125 Z M 6.6875 -6.0625 "/></g></g></g><g fill="#3980b3" fill-opacity="1"><g transform="translate(208.926275, 111.690061)"><g><path d="M 4.3125 -7.640625 C 4.875 -7.640625 5.425781 -7.523438 5.96875 -7.296875 C 6.519531 -7.066406 6.984375 -6.753906 7.359375 -6.359375 L 6.25 -5.046875 C 6 -5.347656 5.703125 -5.585938 5.359375 -5.765625 C 5.015625 -5.941406 4.675781 -6.03125 4.34375 -6.03125 C 3.738281 -6.03125 3.234375 -5.816406 2.828125 -5.390625 C 2.429688 -4.972656 2.234375 -4.453125 2.234375 -3.828125 C 2.234375 -3.191406 2.429688 -2.660156 2.828125 -2.234375 C 3.234375 -1.816406 3.738281 -1.609375 4.34375 -1.609375 C 4.65625 -1.609375 4.984375 -1.6875 5.328125 -1.84375 C 5.671875 -2 5.976562 -2.210938 6.25 -2.484375 L 7.375 -1.296875 C 6.957031 -0.878906 6.46875 -0.539062 5.90625 -0.28125 C 5.351562 -0.03125 4.800781 0.09375 4.25 0.09375 C 3.101562 0.09375 2.148438 -0.273438 1.390625 -1.015625 C 0.640625 -1.765625 0.265625 -2.695312 0.265625 -3.8125 C 0.265625 -4.90625 0.648438 -5.816406 1.421875 -6.546875 C 2.191406 -7.273438 3.15625 -7.640625 4.3125 -7.640625 Z M 4.3125 -7.640625 "/></g></g></g><g fill="#3980b3" fill-opacity="1"><g transform="translate(216.963624, 111.690061)"><g><path d="M 5.328125 0 L 4.203125 -2.140625 L 2.6875 -2.140625 L 2.6875 0 L 0.765625 0 L 0.765625 -7.578125 L 4.140625 -7.578125 C 5.148438 -7.578125 5.925781 -7.347656 6.46875 -6.890625 C 7.019531 -6.429688 7.296875 -5.78125 7.296875 -4.9375 C 7.296875 -3.769531 6.835938 -2.957031 5.921875 -2.5 L 7.515625 0 Z M 2.6875 -3.65625 L 4.140625 -3.65625 C 4.566406 -3.65625 4.894531 -3.757812 5.125 -3.96875 C 5.351562 -4.175781 5.46875 -4.476562 5.46875 -4.875 C 5.46875 -5.257812 5.351562 -5.550781 5.125 -5.75 C 4.894531 -5.957031 4.566406 -6.0625 4.140625 -6.0625 L 2.6875 -6.0625 Z M 2.6875 -3.65625 "/></g></g></g><g fill="#3980b3" fill-opacity="1"><g transform="translate(225.347601, 111.690061)"><g><path d="M 7.578125 -7.578125 L 7.578125 -3.1875 C 7.578125 -2.175781 7.265625 -1.375 6.640625 -0.78125 C 6.023438 -0.195312 5.1875 0.09375 4.125 0.09375 C 3.050781 0.09375 2.195312 -0.195312 1.5625 -0.78125 C 0.9375 -1.375 0.625 -2.175781 0.625 -3.1875 L 0.625 -7.578125 L 2.5625 -7.578125 L 2.5625 -3.1875 C 2.5625 -2.675781 2.707031 -2.269531 3 -1.96875 C 3.289062 -1.675781 3.671875 -1.53125 4.140625 -1.53125 C 4.597656 -1.53125 4.960938 -1.675781 5.234375 -1.96875 C 5.515625 -2.269531 5.65625 -2.675781 5.65625 -3.1875 L 5.65625 -7.578125 Z M 7.578125 -7.578125 "/></g></g></g><g fill="#3980b3" fill-opacity="1"><g transform="translate(234.09986, 111.690061)"><g><path d="M 2.6875 0 L 0.765625 0 L 0.765625 -7.578125 L 2.6875 -7.578125 Z M 2.6875 0 "/></g></g></g><g fill="#3980b3" fill-opacity="1"><g transform="translate(238.086041, 111.690061)"><g><path d="M 6.546875 -6.03125 L 4.265625 -6.03125 L 4.265625 0 L 2.34375 0 L 2.34375 -6.03125 L 0.078125 -6.03125 L 0.078125 -7.59375 L 6.546875 -7.59375 Z M 6.546875 -6.03125 "/></g></g></g><g fill="#3980b3" fill-opacity="1"><g transform="translate(245.245995, 111.690061)"><g><path d="M 9.078125 0 L 7.390625 0 L 7.375 -4.921875 L 5.5625 -0.765625 L 4.296875 -0.765625 L 2.484375 -4.921875 L 2.484375 0 L 0.765625 0 L 0.765625 -7.59375 L 2.875 -7.59375 L 4.921875 -3.078125 L 6.984375 -7.59375 L 9.078125 -7.59375 Z M 9.078125 0 "/></g></g></g><g fill="#3980b3" fill-opacity="1"><g transform="translate(255.64472, 111.690061)"><g><path d="M 6.6875 -6.0625 L 2.6875 -6.0625 L 2.6875 -4.5625 L 6.296875 -4.5625 L 6.296875 -3.046875 L 2.6875 -3.046875 L 2.6875 -1.515625 L 6.8125 -1.515625 L 6.8125 0 L 0.765625 0 L 0.765625 -7.578125 L 6.6875 -7.578125 Z M 6.6875 -6.0625 "/></g></g></g><g fill="#3980b3" fill-opacity="1"><g transform="translate(263.487097, 111.690061)"><g><path d="M 7.75 0 L 6.046875 0 L 2.5625 -4.671875 L 2.5625 0 L 0.765625 0 L 0.765625 -7.578125 L 2.453125 -7.578125 L 5.953125 -2.90625 L 5.953125 -7.578125 L 7.75 -7.578125 Z M 7.75 0 "/></g></g></g><g fill="#3980b3" fill-opacity="1"><g transform="translate(272.54265, 111.690061)"><g><path d="M 6.546875 -6.03125 L 4.265625 -6.03125 L 4.265625 0 L 2.34375 0 L 2.34375 -6.03125 L 0.078125 -6.03125 L 0.078125 -7.59375 L 6.546875 -7.59375 Z M 6.546875 -6.03125 "/></g></g></g></svg>