<svg xmlns="http://www.w3.org/2000/svg" xmlns:xlink="http://www.w3.org/1999/xlink" width="940" zoomAndPan="magnify" viewBox="0 0 705 591.000005" height="788" preserveAspectRatio="xMidYMid meet" version="1.0"><defs><clipPath id="ffeddce90f"><path d="M 482 495.285156 L 602 495.285156 L 602 590 L 482 590 Z M 482 495.285156 " clip-rule="nonzero"/></clipPath><clipPath id="7c3816ab0d"><path d="M 73 511 L 259 511 L 259 590 L 73 590 Z M 73 511 " clip-rule="nonzero"/></clipPath><clipPath id="a6c80415f9"><path d="M 491 497 L 662.761719 497 L 662.761719 590 L 491 590 Z M 491 497 " clip-rule="nonzero"/></clipPath><clipPath id="7116214ec8"><path d="M 94.394531 34.652344 L 610.273438 34.652344 L 610.273438 474.15625 L 94.394531 474.15625 Z M 94.394531 34.652344 " clip-rule="nonzero"/></clipPath><clipPath id="c33ee1a2ff"><path d="M 181 336.269531 L 184 336.269531 L 184 341 L 181 341 Z M 181 336.269531 " clip-rule="nonzero"/></clipPath><clipPath id="bf0f22e1ce"><path d="M 135.042969 386 L 201.679688 386 L 201.679688 474 L 135.042969 474 Z M 135.042969 386 " clip-rule="nonzero"/></clipPath><clipPath id="32e3b45394"><path d="M 463.261719 388 L 543 388 L 543 473.558594 L 463.261719 473.558594 Z M 463.261719 388 " clip-rule="nonzero"/></clipPath><clipPath id="64c5797adb"><path d="M 463.261719 383.710938 L 543 383.710938 L 543 394 L 463.261719 394 Z M 463.261719 383.710938 " clip-rule="nonzero"/></clipPath><clipPath id="e272fb48ae"><path d="M 533 400 L 561.917969 400 L 561.917969 454 L 533 454 Z M 533 400 " clip-rule="nonzero"/></clipPath></defs><path fill="#ffffff" d="M 109 568.78125 L 152.492188 501.140625 L 452.539062 501.5 L 498.183594 568.78125 Z M 109 568.78125 " fill-opacity="1" fill-rule="nonzero"/><path fill="#d1d1d1" d="M 109 568.78125 L 498.183594 568.78125 L 498.183594 575.113281 L 109 575.113281 Z M 109 568.78125 " fill-opacity="1" fill-rule="nonzero"/><path fill="#4f4f4f" d="M 285.609375 539.265625 L 300.785156 539.265625 L 300.785156 550.019531 L 285.609375 550.019531 Z M 285.609375 539.265625 " fill-opacity="1" fill-rule="nonzero"/><path fill="#4f4f4f" d="M 301.980469 550.019531 L 318.707031 550.019531 L 318.347656 539.265625 L 301.980469 539.265625 Z M 301.980469 550.019531 " fill-opacity="1" fill-rule="nonzero"/><path fill="#4f4f4f" d="M 334.71875 517.871094 L 334.480469 508.550781 L 318.589844 508.550781 L 318.828125 517.871094 Z M 334.71875 517.871094 " fill-opacity="1" fill-rule="nonzero"/><path fill="#4f4f4f" d="M 301.980469 538.667969 L 318.347656 538.667969 L 317.992188 529.226562 L 301.980469 529.226562 Z M 301.980469 538.667969 " fill-opacity="1" fill-rule="nonzero"/><path fill="#4f4f4f" d="M 285.609375 529.226562 L 300.785156 529.226562 L 300.785156 538.667969 L 285.609375 538.667969 Z M 285.609375 529.226562 " fill-opacity="1" fill-rule="nonzero"/><path fill="#4f4f4f" d="M 301.980469 508.550781 L 301.980469 517.871094 L 317.632812 517.871094 L 317.394531 508.550781 Z M 301.980469 508.550781 " fill-opacity="1" fill-rule="nonzero"/><path fill="#4f4f4f" d="M 335.914062 517.871094 L 351.449219 517.871094 L 350.613281 508.550781 L 335.675781 508.550781 Z M 335.914062 517.871094 " fill-opacity="1" fill-rule="nonzero"/><path fill="#4f4f4f" d="M 285.609375 518.351562 L 300.785156 518.351562 L 300.785156 528.269531 L 285.609375 528.269531 Z M 285.609375 518.351562 " fill-opacity="1" fill-rule="nonzero"/><path fill="#4f4f4f" d="M 433.300781 508.550781 L 438.679688 517.871094 L 452.777344 517.871094 L 446.683594 508.550781 Z M 433.300781 508.550781 " fill-opacity="1" fill-rule="nonzero"/><path fill="#4f4f4f" d="M 301.980469 528.269531 L 317.992188 528.269531 L 317.632812 518.351562 L 301.980469 518.351562 Z M 301.980469 528.269531 " fill-opacity="1" fill-rule="nonzero"/><path fill="#4f4f4f" d="M 438.917969 518.351562 L 444.53125 528.269531 L 459.46875 528.269531 L 453.015625 518.351562 Z M 438.917969 518.351562 " fill-opacity="1" fill-rule="nonzero"/><path fill="#4f4f4f" d="M 235.0625 518.351562 L 218.8125 518.351562 L 216.542969 528.269531 L 233.628906 528.269531 Z M 235.0625 518.351562 " fill-opacity="1" fill-rule="nonzero"/><path fill="#4f4f4f" d="M 233.507812 529.226562 L 216.421875 529.226562 L 214.269531 538.667969 L 232.074219 538.667969 Z M 233.507812 529.226562 " fill-opacity="1" fill-rule="nonzero"/><path fill="#4f4f4f" d="M 252.269531 518.351562 L 236.257812 518.351562 L 234.824219 528.269531 L 251.3125 528.269531 Z M 252.269531 518.351562 " fill-opacity="1" fill-rule="nonzero"/><path fill="#4f4f4f" d="M 253.226562 508.550781 L 237.8125 508.550781 L 236.378906 517.871094 L 252.269531 517.871094 Z M 253.226562 508.550781 " fill-opacity="1" fill-rule="nonzero"/><path fill="#4f4f4f" d="M 180.335938 528.269531 L 197.183594 528.269531 L 200.648438 518.351562 L 184.875 518.351562 Z M 180.335938 528.269531 " fill-opacity="1" fill-rule="nonzero"/><path fill="#4f4f4f" d="M 215.109375 529.226562 L 198.140625 529.226562 L 194.792969 538.667969 L 212.957031 538.667969 Z M 215.109375 529.226562 " fill-opacity="1" fill-rule="nonzero"/><path fill="#4f4f4f" d="M 217.617188 518.351562 L 201.964844 518.351562 L 198.5 528.269531 L 215.347656 528.269531 Z M 217.617188 518.351562 " fill-opacity="1" fill-rule="nonzero"/><path fill="#4f4f4f" d="M 285.609375 508.550781 L 300.785156 508.550781 L 300.785156 517.871094 L 285.609375 517.871094 Z M 285.609375 508.550781 " fill-opacity="1" fill-rule="nonzero"/><path fill="#4f4f4f" d="M 218.933594 517.871094 L 235.183594 517.871094 L 236.617188 508.550781 L 221.082031 508.550781 Z M 218.933594 517.871094 " fill-opacity="1" fill-rule="nonzero"/><path fill="#4f4f4f" d="M 175.675781 538.667969 L 193.480469 538.667969 L 196.824219 529.226562 L 179.976562 529.226562 Z M 175.675781 538.667969 " fill-opacity="1" fill-rule="nonzero"/><path fill="#4f4f4f" d="M 449.074219 538.667969 L 443.695312 529.226562 L 426.371094 529.226562 L 430.671875 538.667969 Z M 449.074219 538.667969 " fill-opacity="1" fill-rule="nonzero"/><path fill="#4f4f4f" d="M 429.355469 538.667969 L 425.054688 529.226562 L 408.207031 529.226562 L 411.554688 538.667969 Z M 429.355469 538.667969 " fill-opacity="1" fill-rule="nonzero"/><path fill="#4f4f4f" d="M 410.238281 538.667969 L 406.894531 529.226562 L 389.925781 529.226562 L 392.074219 538.667969 Z M 410.238281 538.667969 " fill-opacity="1" fill-rule="nonzero"/><path fill="#4f4f4f" d="M 421.472656 518.351562 L 426.011719 528.269531 L 443.21875 528.269531 L 437.484375 518.351562 Z M 421.472656 518.351562 " fill-opacity="1" fill-rule="nonzero"/><path fill="#4f4f4f" d="M 400.917969 508.550781 L 404.265625 517.871094 L 419.917969 517.871094 L 415.734375 508.550781 Z M 400.917969 508.550781 " fill-opacity="1" fill-rule="nonzero"/><path fill="#4f4f4f" d="M 417.050781 508.550781 L 421.230469 517.871094 L 437.242188 517.871094 L 431.984375 508.550781 Z M 417.050781 508.550781 " fill-opacity="1" fill-rule="nonzero"/><path fill="#4f4f4f" d="M 480.738281 561.371094 L 474.167969 551.09375 L 457.4375 551.09375 L 463.292969 561.253906 L 462.933594 561.371094 Z M 480.738281 561.371094 " fill-opacity="1" fill-rule="nonzero"/><path fill="#4f4f4f" d="M 424.695312 528.269531 L 420.15625 518.351562 L 404.382812 518.351562 L 407.847656 528.269531 Z M 424.695312 528.269531 " fill-opacity="1" fill-rule="nonzero"/><path fill="#4f4f4f" d="M 461.980469 561.371094 L 456.125 551.09375 L 436.289062 551.09375 L 440.949219 561.371094 Z M 461.980469 561.371094 " fill-opacity="1" fill-rule="nonzero"/><path fill="#4f4f4f" d="M 387.414062 518.351562 L 389.6875 528.269531 L 406.652344 528.269531 L 403.070312 518.351562 Z M 387.414062 518.351562 " fill-opacity="1" fill-rule="nonzero"/><path fill="#4f4f4f" d="M 385.265625 508.550781 L 387.296875 517.871094 L 402.949219 517.871094 L 399.722656 508.550781 Z M 385.265625 508.550781 " fill-opacity="1" fill-rule="nonzero"/><path fill="#4f4f4f" d="M 434.496094 550.019531 L 429.597656 539.265625 L 411.792969 539.265625 L 415.496094 550.019531 Z M 434.496094 550.019531 " fill-opacity="1" fill-rule="nonzero"/><path fill="#4f4f4f" d="M 393.390625 550.019531 L 390.882812 539.265625 L 373.078125 539.265625 L 374.628906 550.019531 Z M 393.390625 550.019531 " fill-opacity="1" fill-rule="nonzero"/><path fill="#4f4f4f" d="M 414.300781 550.019531 L 410.476562 539.265625 L 392.195312 539.265625 L 394.585938 550.019531 Z M 414.300781 550.019531 " fill-opacity="1" fill-rule="nonzero"/><path fill="#4f4f4f" d="M 473.449219 550.019531 L 466.519531 539.265625 L 450.746094 539.265625 L 456.839844 550.019531 Z M 473.449219 550.019531 " fill-opacity="1" fill-rule="nonzero"/><path fill="#4f4f4f" d="M 455.527344 550.019531 L 449.433594 539.265625 L 430.910156 539.265625 L 435.808594 550.019531 Z M 455.527344 550.019531 " fill-opacity="1" fill-rule="nonzero"/><path fill="#4f4f4f" d="M 370.207031 528.269531 L 368.65625 518.351562 L 352.644531 518.351562 L 353.597656 528.269531 Z M 370.207031 528.269531 " fill-opacity="1" fill-rule="nonzero"/><path fill="#4f4f4f" d="M 390.761719 538.667969 L 386.222656 518.351562 L 369.851562 518.351562 L 371.402344 528.269531 L 371.523438 529.226562 L 371.523438 529.34375 L 370.328125 529.34375 L 370.328125 529.226562 L 353.71875 529.226562 L 354.554688 538.667969 Z M 390.761719 538.667969 " fill-opacity="1" fill-rule="nonzero"/><path fill="#4f4f4f" d="M 351.808594 508.550781 L 352.644531 517.871094 L 368.535156 517.871094 L 367.222656 508.550781 Z M 351.808594 508.550781 " fill-opacity="1" fill-rule="nonzero"/><path fill="#4f4f4f" d="M 368.417969 508.550781 L 369.851562 517.871094 L 386.101562 517.871094 L 383.949219 508.550781 Z M 368.417969 508.550781 " fill-opacity="1" fill-rule="nonzero"/><path fill="#4f4f4f" d="M 445.128906 529.226562 L 450.386719 538.667969 L 466.160156 538.667969 L 460.066406 529.226562 Z M 445.128906 529.226562 " fill-opacity="1" fill-rule="nonzero"/><path fill="#4f4f4f" d="M 185.117188 517.871094 L 200.886719 517.871094 L 204.113281 508.550781 L 189.296875 508.550781 Z M 185.117188 517.871094 " fill-opacity="1" fill-rule="nonzero"/><path fill="#4f4f4f" d="M 335.078125 528.269531 L 334.71875 518.351562 L 318.828125 518.351562 L 319.1875 528.269531 Z M 335.078125 528.269531 " fill-opacity="1" fill-rule="nonzero"/><path fill="#4f4f4f" d="M 230.164062 551.09375 L 211.402344 551.09375 L 209.132812 561.371094 L 228.609375 561.371094 Z M 230.164062 551.09375 " fill-opacity="1" fill-rule="nonzero"/><path fill="#4f4f4f" d="M 318.707031 551.09375 L 231.359375 551.09375 L 229.804688 561.371094 L 319.066406 561.371094 Z M 318.707031 551.09375 " fill-opacity="1" fill-rule="nonzero"/><path fill="#4f4f4f" d="M 335.796875 550.019531 L 335.4375 539.265625 L 319.542969 539.265625 L 319.902344 550.019531 Z M 335.796875 550.019531 " fill-opacity="1" fill-rule="nonzero"/><path fill="#4f4f4f" d="M 335.4375 538.667969 L 335.078125 529.226562 L 319.1875 529.226562 L 319.542969 538.667969 Z M 335.4375 538.667969 " fill-opacity="1" fill-rule="nonzero"/><path fill="#4f4f4f" d="M 189.179688 551.09375 L 170.058594 551.09375 L 165.398438 561.371094 L 185.59375 561.371094 Z M 189.179688 551.09375 " fill-opacity="1" fill-rule="nonzero"/><path fill="#4f4f4f" d="M 210.207031 551.09375 L 190.492188 551.09375 L 186.789062 561.371094 L 207.9375 561.371094 Z M 210.207031 551.09375 " fill-opacity="1" fill-rule="nonzero"/><path fill="#4f4f4f" d="M 124.175781 561.371094 L 141.738281 561.371094 L 147.59375 551.09375 L 130.867188 551.09375 Z M 124.175781 561.371094 " fill-opacity="1" fill-rule="nonzero"/><path fill="#4f4f4f" d="M 168.746094 551.09375 L 148.910156 551.09375 L 143.171875 561.371094 L 164.085938 561.371094 Z M 168.746094 551.09375 " fill-opacity="1" fill-rule="nonzero"/><path fill="#4f4f4f" d="M 336.152344 561.371094 L 335.796875 551.09375 L 319.902344 551.09375 L 320.261719 561.371094 Z M 336.152344 561.371094 " fill-opacity="1" fill-rule="nonzero"/><path fill="#4f4f4f" d="M 131.464844 550.019531 L 148.191406 550.019531 L 154.285156 539.265625 L 138.394531 539.265625 Z M 131.464844 550.019531 " fill-opacity="1" fill-rule="nonzero"/><path fill="#4f4f4f" d="M 375.226562 561.371094 L 373.675781 551.09375 L 355.75 551.09375 L 356.707031 561.371094 Z M 375.226562 561.371094 " fill-opacity="1" fill-rule="nonzero"/><path fill="#4f4f4f" d="M 352.40625 528.269531 L 351.449219 518.351562 L 335.914062 518.351562 L 336.273438 528.269531 Z M 352.40625 528.269531 " fill-opacity="1" fill-rule="nonzero"/><path fill="#4f4f4f" d="M 395.898438 561.371094 L 393.628906 551.09375 L 374.867188 551.09375 L 376.421875 561.371094 Z M 395.898438 561.371094 " fill-opacity="1" fill-rule="nonzero"/><path fill="#4f4f4f" d="M 439.632812 561.371094 L 434.972656 551.09375 L 415.855469 551.09375 L 419.558594 561.371094 Z M 439.632812 561.371094 " fill-opacity="1" fill-rule="nonzero"/><path fill="#4f4f4f" d="M 418.246094 561.371094 L 414.660156 551.09375 L 394.824219 551.09375 L 397.09375 561.371094 Z M 418.246094 561.371094 " fill-opacity="1" fill-rule="nonzero"/><path fill="#4f4f4f" d="M 353.359375 538.667969 L 352.523438 529.226562 L 336.273438 529.226562 L 336.632812 538.667969 Z M 353.359375 538.667969 " fill-opacity="1" fill-rule="nonzero"/><path fill="#4f4f4f" d="M 354.4375 550.019531 L 353.359375 539.265625 L 336.632812 539.265625 L 336.988281 550.019531 Z M 354.4375 550.019531 " fill-opacity="1" fill-rule="nonzero"/><path fill="#4f4f4f" d="M 373.433594 550.019531 L 371.882812 539.265625 L 354.554688 539.265625 L 355.628906 550.019531 Z M 373.433594 550.019531 " fill-opacity="1" fill-rule="nonzero"/><path fill="#4f4f4f" d="M 355.390625 561.371094 L 354.554688 551.09375 L 336.988281 551.09375 L 337.347656 561.371094 Z M 355.390625 561.371094 " fill-opacity="1" fill-rule="nonzero"/><path fill="#4f4f4f" d="M 284.414062 539.265625 L 269.476562 539.265625 L 269.117188 550.019531 L 284.414062 550.019531 Z M 284.414062 539.265625 " fill-opacity="1" fill-rule="nonzero"/><path fill="#4f4f4f" d="M 212.835938 539.265625 L 194.554688 539.265625 L 190.851562 550.019531 L 210.449219 550.019531 Z M 212.835938 539.265625 " fill-opacity="1" fill-rule="nonzero"/><path fill="#4f4f4f" d="M 231.957031 539.265625 L 214.152344 539.265625 L 211.644531 550.019531 L 230.402344 550.019531 Z M 231.957031 539.265625 " fill-opacity="1" fill-rule="nonzero"/><path fill="#4f4f4f" d="M 193.359375 539.265625 L 175.4375 539.265625 L 170.539062 550.019531 L 189.535156 550.019531 Z M 193.359375 539.265625 " fill-opacity="1" fill-rule="nonzero"/><path fill="#4f4f4f" d="M 268.28125 539.265625 L 251.554688 539.265625 L 250.597656 550.019531 L 267.921875 550.019531 Z M 268.28125 539.265625 " fill-opacity="1" fill-rule="nonzero"/><path fill="#4f4f4f" d="M 250.359375 539.265625 L 233.152344 539.265625 L 231.597656 550.019531 L 249.402344 550.019531 Z M 250.359375 539.265625 " fill-opacity="1" fill-rule="nonzero"/><path fill="#4f4f4f" d="M 251.3125 529.226562 L 234.703125 529.226562 L 233.269531 538.667969 L 250.476562 538.667969 Z M 251.3125 529.226562 " fill-opacity="1" fill-rule="nonzero"/><path fill="#4f4f4f" d="M 161.933594 528.269531 L 179.019531 528.269531 L 183.5625 518.351562 L 167.550781 518.351562 Z M 161.933594 528.269531 " fill-opacity="1" fill-rule="nonzero"/><path fill="#4f4f4f" d="M 167.789062 517.871094 L 183.800781 517.871094 L 187.984375 508.550781 L 173.046875 508.550781 Z M 167.789062 517.871094 " fill-opacity="1" fill-rule="nonzero"/><path fill="#4f4f4f" d="M 138.871094 538.667969 L 154.644531 538.667969 L 159.902344 529.226562 L 144.847656 529.226562 Z M 138.871094 538.667969 " fill-opacity="1" fill-rule="nonzero"/><path fill="#4f4f4f" d="M 149.507812 550.019531 L 169.222656 550.019531 L 174.121094 539.265625 L 155.601562 539.265625 Z M 149.507812 550.019531 " fill-opacity="1" fill-rule="nonzero"/><path fill="#4f4f4f" d="M 155.960938 538.667969 L 174.359375 538.667969 L 178.664062 529.226562 L 161.335938 529.226562 Z M 155.960938 538.667969 " fill-opacity="1" fill-rule="nonzero"/><path fill="#4f4f4f" d="M 284.414062 508.550781 L 270.550781 508.550781 L 270.195312 517.871094 L 284.414062 517.871094 Z M 284.414062 508.550781 " fill-opacity="1" fill-rule="nonzero"/><path fill="#4f4f4f" d="M 284.414062 518.351562 L 270.195312 518.351562 L 269.835938 528.269531 L 284.414062 528.269531 Z M 284.414062 518.351562 " fill-opacity="1" fill-rule="nonzero"/><path fill="#4f4f4f" d="M 268.640625 529.226562 L 252.507812 529.226562 L 251.671875 538.667969 L 268.28125 538.667969 Z M 268.640625 529.226562 " fill-opacity="1" fill-rule="nonzero"/><path fill="#4f4f4f" d="M 151.898438 518.351562 L 145.5625 528.269531 L 160.621094 528.269531 L 166.234375 518.351562 L 152.136719 518.351562 C 152.136719 518.351562 152.015625 518.351562 151.898438 518.351562 Z M 151.898438 518.351562 " fill-opacity="1" fill-rule="nonzero"/><path fill="#4f4f4f" d="M 152.253906 517.871094 C 152.375 517.871094 152.375 517.871094 152.492188 517.871094 C 152.492188 517.871094 152.613281 517.871094 152.734375 517.871094 C 152.734375 517.871094 152.851562 517.871094 152.972656 517.871094 L 166.355469 517.871094 L 171.613281 508.550781 L 158.230469 508.550781 Z M 152.253906 517.871094 " fill-opacity="1" fill-rule="nonzero"/><path fill="#4f4f4f" d="M 269.355469 508.550781 L 254.421875 508.550781 L 253.464844 517.871094 L 269 517.871094 Z M 269.355469 508.550781 " fill-opacity="1" fill-rule="nonzero"/><path fill="#4f4f4f" d="M 269 518.351562 L 253.464844 518.351562 L 252.628906 528.269531 L 268.640625 528.269531 Z M 269 518.351562 " fill-opacity="1" fill-rule="nonzero"/><path fill="#4f4f4f" d="M 284.414062 529.226562 L 269.835938 529.226562 L 269.476562 538.667969 L 284.414062 538.667969 Z M 284.414062 529.226562 " fill-opacity="1" fill-rule="nonzero"/><path fill="#4f4f4f" d="M 202.082031 517.871094 L 217.738281 517.871094 L 219.769531 508.550781 L 205.429688 508.550781 Z M 202.082031 517.871094 " fill-opacity="1" fill-rule="nonzero"/><g clip-path="url(#ffeddce90f)"><path fill="#ffffff" d="M 568.925781 598.539062 C 573.941406 600.328125 579.558594 601.882812 584.457031 599.972656 C 587.683594 598.777344 590.195312 596.148438 592.34375 593.398438 C 600.589844 582.523438 602.859375 567.707031 599.871094 554.441406 C 596.886719 541.054688 589.117188 529.226562 579.320312 519.546875 C 568.566406 509.03125 555.300781 500.902344 540.605469 497.316406 C 526.027344 493.734375 510.132812 494.6875 496.511719 500.902344 C 485.996094 505.683594 477.273438 515.003906 485.28125 526.117188 C 485.398438 526 531.761719 585.152344 568.925781 598.539062 Z M 568.925781 598.539062 " fill-opacity="1" fill-rule="nonzero"/></g><g clip-path="url(#7c3816ab0d)"><path fill="#f6946a" d="M 208.535156 554.203125 C 206.265625 558.265625 201.367188 562.207031 198.378906 565.792969 C 198.378906 565.792969 200.171875 565.078125 205.429688 564.121094 C 210.207031 563.285156 214.988281 561.253906 219.648438 559.578125 C 228.609375 556.351562 228.492188 552.527344 238.648438 552.886719 C 246.773438 553.246094 260.992188 556.710938 254.0625 568.0625 C 252.867188 570.09375 250.957031 571.289062 248.683594 572.128906 C 247.609375 572.367188 246.652344 572.722656 245.578125 572.964844 C 244.382812 573.320312 243.070312 573.679688 241.875 573.917969 C 239.363281 574.515625 236.257812 574.515625 233.988281 576.308594 C 221.441406 586.109375 201.605469 599.492188 184.757812 607.5 C 176.273438 611.5625 167.3125 615.265625 157.871094 615.746094 C 149.148438 616.222656 141.023438 615.746094 132.898438 619.089844 C 124.175781 622.675781 122.5 625.542969 114.257812 629.964844 C 111.507812 631.402344 87.011719 648.488281 84.382812 650.402344 L 73.390625 592.921875 C 74.824219 591.726562 108.761719 565.554688 110.074219 564.238281 C 117.125 557.546875 122.742188 549.421875 128.117188 541.535156 C 130.746094 537.589844 133.253906 533.527344 136.601562 530.179688 C 139.949219 526.835938 143.292969 526.359375 147.476562 524.921875 C 151.539062 523.488281 153.332031 519.546875 157.035156 517.394531 C 159.902344 515.722656 164.921875 514.40625 168.265625 515.601562 C 168.265625 515.601562 167.550781 515.363281 171.253906 513.332031 C 172.570312 512.613281 174.003906 512.136719 175.554688 512.015625 C 177.230469 511.898438 178.902344 512.015625 180.695312 512.375 C 181.050781 512.257812 181.410156 512.136719 181.769531 512.015625 C 181.890625 512.015625 182.007812 512.015625 182.128906 511.898438 C 183.679688 512.257812 185.117188 512.496094 186.667969 512.855469 C 187.984375 513.332031 189.417969 513.691406 190.851562 514.046875 L 190.96875 514.046875 C 192.046875 514.289062 193.242188 514.527344 194.316406 514.644531 C 195.871094 514.886719 197.542969 515.003906 199.214844 514.886719 C 201.605469 515.003906 203.875 514.765625 206.265625 514.40625 C 207.101562 514.40625 207.9375 514.40625 208.773438 514.527344 C 209.492188 514.886719 210.207031 515.125 210.6875 515.484375 C 212.597656 515.601562 214.511719 515.839844 216.421875 516.320312 C 222.515625 517.871094 228.132812 519.308594 234.347656 520.261719 C 236.734375 520.621094 239.484375 520.621094 241.636719 521.9375 C 243.667969 523.132812 246.535156 526.714844 244.144531 528.988281 C 248.207031 530.898438 263.980469 535.082031 255.855469 541.414062 C 250.121094 545.835938 241.515625 542.730469 235.183594 542.132812 C 227.894531 541.414062 223.59375 540.9375 216.542969 545.476562 C 216.304688 545.597656 211.402344 549.0625 208.535156 554.203125 Z M 208.535156 554.203125 " fill-opacity="1" fill-rule="nonzero"/></g><path fill="#4f271d" d="M 203.875 538.425781 C 203.636719 538.425781 203.398438 538.308594 203.277344 538.1875 C 202.917969 537.828125 202.917969 537.351562 203.277344 536.992188 L 204.234375 536.039062 C 207.222656 533.050781 209.96875 530.300781 214.03125 528.507812 C 217.140625 527.195312 220.964844 526.359375 224.785156 526.238281 C 231 526 237.574219 526.953125 244.023438 528.746094 C 244.503906 528.867188 244.742188 529.34375 244.621094 529.824219 C 244.503906 530.300781 244.023438 530.539062 243.546875 530.421875 C 237.332031 528.628906 230.882812 527.792969 224.90625 527.910156 C 221.203125 528.03125 217.738281 528.746094 214.75 530.0625 C 210.925781 531.734375 208.417969 534.246094 205.429688 537.230469 L 204.472656 538.1875 C 204.234375 538.308594 204.113281 538.425781 203.875 538.425781 Z M 203.875 538.425781 " fill-opacity="1" fill-rule="nonzero"/><path fill="#4f271d" d="M 176.871094 533.167969 C 176.632812 533.167969 176.390625 533.050781 176.273438 532.929688 C 175.914062 532.570312 176.035156 532.09375 176.390625 531.734375 C 183.800781 525.042969 193 518.949219 197.421875 517.15625 C 201.605469 515.363281 208.175781 513.929688 213.078125 515.484375 C 213.554688 515.601562 213.792969 516.082031 213.554688 516.558594 C 213.433594 517.035156 212.957031 517.273438 212.480469 517.035156 C 208.058594 515.601562 201.964844 516.917969 198.019531 518.589844 C 194.554688 520.144531 185.59375 525.640625 177.46875 532.929688 C 177.230469 533.050781 177.109375 533.167969 176.871094 533.167969 Z M 176.871094 533.167969 " fill-opacity="1" fill-rule="nonzero"/><path fill="#4f271d" d="M 145.445312 533.167969 C 145.203125 533.167969 144.847656 533.050781 144.726562 532.8125 C 144.488281 532.453125 144.609375 531.972656 144.964844 531.734375 C 155.363281 525.28125 163.847656 518.230469 166.953125 515.601562 L 167.667969 515.003906 C 174.480469 509.386719 180.457031 510.820312 186.789062 512.496094 C 188.101562 512.855469 189.535156 513.210938 190.96875 513.449219 C 191.449219 513.570312 191.6875 513.929688 191.566406 514.40625 C 191.449219 514.886719 191.089844 515.125 190.613281 515.003906 C 189.179688 514.765625 187.746094 514.40625 186.308594 514.046875 C 180.214844 512.496094 174.839844 511.179688 168.625 516.320312 L 167.910156 516.917969 C 164.683594 519.546875 156.199219 526.597656 145.683594 533.167969 C 145.800781 533.167969 145.683594 533.167969 145.445312 533.167969 Z M 145.445312 533.167969 " fill-opacity="1" fill-rule="nonzero"/><g clip-path="url(#a6c80415f9)"><path fill="#f6946a" d="M 617.796875 573.917969 L 662.128906 624.945312 L 610.148438 653.269531 C 607.640625 649.683594 605.011719 645.742188 602.023438 642.515625 C 595.808594 635.582031 595.210938 632.238281 588.164062 625.902344 C 581.589844 620.046875 573.824219 617.65625 565.816406 614.191406 C 556.976562 610.488281 549.925781 603.914062 543.234375 597.222656 C 530.089844 583.957031 515.988281 564.597656 507.625 550.976562 C 506.070312 548.464844 503.203125 547.390625 501.054688 545.957031 C 499.976562 545.238281 498.902344 544.523438 497.945312 543.804688 C 497.109375 543.207031 496.152344 542.492188 495.316406 541.894531 C 493.40625 540.21875 491.972656 538.546875 491.613281 536.277344 C 489.101562 523.25 503.679688 524.921875 511.449219 527.3125 C 521.128906 530.421875 519.574219 534.003906 526.984375 540.101562 C 530.804688 543.207031 534.628906 546.792969 538.8125 549.300781 C 543.472656 551.929688 544.90625 553.246094 544.90625 553.246094 C 543.351562 548.945312 540.125 543.566406 539.289062 538.90625 C 538.335938 533.167969 534.867188 528.148438 534.867188 528.148438 C 529.851562 521.457031 525.546875 520.5 518.5 518.589844 C 512.285156 516.917969 503.203125 516.917969 499.261719 510.820312 C 493.761719 502.097656 510.015625 503.53125 514.554688 503.175781 C 513.121094 500.304688 516.945312 497.914062 519.335938 497.4375 C 521.726562 496.960938 524.472656 497.914062 526.742188 498.394531 C 532.835938 499.589844 538.691406 500.1875 545.027344 500.785156 C 546.9375 501.023438 548.847656 501.382812 550.761719 501.980469 C 551.238281 501.859375 551.957031 501.738281 552.792969 501.738281 C 553.628906 501.980469 554.347656 502.21875 555.183594 502.457031 C 557.214844 503.652344 559.363281 504.609375 561.636719 505.324219 C 563.1875 505.921875 564.742188 506.402344 566.296875 506.757812 C 567.371094 506.996094 568.566406 507.238281 569.761719 507.355469 C 571.195312 507.476562 572.746094 507.59375 574.300781 507.714844 C 575.855469 507.953125 577.40625 508.191406 578.960938 508.433594 C 579.082031 508.433594 579.082031 508.550781 579.199219 508.671875 C 579.441406 508.910156 579.796875 509.148438 580.15625 509.386719 C 581.949219 509.628906 583.621094 510.105469 585.175781 510.820312 C 586.488281 511.417969 587.683594 512.257812 588.640625 513.449219 C 591.507812 516.558594 590.671875 516.675781 590.671875 516.675781 C 594.257812 516.675781 598.558594 519.546875 600.710938 522.175781 C 603.339844 525.519531 604.414062 529.105469 607.042969 532.453125 C 621.5 551.09375 616.722656 572.964844 617.796875 573.917969 Z M 617.796875 573.917969 " fill-opacity="1" fill-rule="nonzero"/></g><path fill="#4f271d" d="M 549.207031 525.640625 C 548.851562 525.640625 548.609375 525.519531 548.492188 525.164062 L 547.894531 523.847656 C 546.101562 520.023438 544.667969 516.796875 541.5625 513.929688 C 539.171875 511.660156 536.183594 509.867188 532.71875 508.433594 C 527.101562 506.160156 520.769531 504.726562 514.316406 504.367188 C 513.839844 504.367188 513.480469 503.890625 513.597656 503.53125 C 513.597656 503.054688 513.957031 502.695312 514.4375 502.816406 C 521.007812 503.292969 527.578125 504.726562 533.433594 506.996094 C 537.019531 508.433594 540.367188 510.464844 542.875 512.855469 C 546.101562 515.960938 547.773438 519.546875 549.566406 523.25 L 550.164062 524.566406 C 550.402344 524.921875 550.164062 525.519531 549.804688 525.640625 C 549.445312 525.640625 549.328125 525.640625 549.207031 525.640625 Z M 549.207031 525.640625 " fill-opacity="1" fill-rule="nonzero"/><path fill="#4f271d" d="M 576.453125 530.0625 C 576.214844 530.0625 575.855469 529.941406 575.734375 529.585938 C 570.597656 520.023438 564.144531 511.660156 561.277344 509.148438 C 558.171875 506.28125 552.914062 502.816406 548.253906 502.695312 C 547.773438 502.695312 547.414062 502.335938 547.414062 501.859375 C 547.414062 501.382812 547.773438 501.023438 548.253906 501.023438 C 553.390625 501.140625 559.125 504.847656 562.351562 507.953125 C 565.816406 511.179688 572.390625 520.023438 577.050781 528.867188 C 577.289062 529.226562 577.167969 529.824219 576.691406 529.941406 C 576.691406 529.941406 576.570312 530.0625 576.453125 530.0625 Z M 576.453125 530.0625 " fill-opacity="1" fill-rule="nonzero"/><path fill="#4f271d" d="M 605.96875 540.816406 C 605.726562 540.816406 605.488281 540.699219 605.371094 540.457031 C 597.722656 530.660156 592.105469 521.21875 590.074219 517.632812 L 589.597656 516.917969 C 585.535156 509.984375 580.039062 509.386719 573.703125 508.789062 C 572.269531 508.671875 570.835938 508.433594 569.402344 508.3125 C 568.925781 508.191406 568.683594 507.835938 568.683594 507.355469 C 568.804688 506.878906 569.164062 506.640625 569.640625 506.640625 C 571.074219 506.878906 572.507812 506.996094 573.941406 507.117188 C 580.394531 507.835938 586.609375 508.433594 591.03125 516.082031 L 591.507812 516.796875 C 593.539062 520.382812 599.15625 529.824219 606.683594 539.503906 C 606.921875 539.859375 606.921875 540.339844 606.5625 540.699219 C 606.324219 540.699219 606.207031 540.816406 605.96875 540.816406 Z M 605.96875 540.816406 " fill-opacity="1" fill-rule="nonzero"/><g clip-path="url(#7116214ec8)"><path fill="#ffffff" d="M 579.269531 34.652344 L 125.394531 34.652344 C 108.265625 34.652344 94.394531 48.542969 94.394531 65.691406 L 94.394531 367.355469 C 94.394531 384.507812 108.265625 398.394531 125.394531 398.394531 L 296.585938 398.394531 L 283.554688 442.796875 L 254.96875 467 C 252.132812 469.417969 253.8125 474.046875 257.597656 474.046875 L 438.875 474.046875 C 442.65625 474.046875 444.339844 469.3125 441.394531 467 L 410.183594 441.21875 L 398.308594 398.394531 L 579.269531 398.394531 C 596.402344 398.394531 610.273438 384.507812 610.273438 367.355469 L 610.273438 65.691406 C 610.273438 48.542969 596.402344 34.652344 579.269531 34.652344 Z M 579.269531 34.652344 " fill-opacity="1" fill-rule="nonzero"/></g><path fill="#a31d4c" d="M 140.84375 80.109375 C 140.84375 80.597656 140.75 81.066406 140.5625 81.515625 C 140.378906 81.96875 140.113281 82.367188 139.765625 82.710938 C 139.421875 83.058594 139.023438 83.324219 138.574219 83.511719 C 138.121094 83.695312 137.652344 83.789062 137.164062 83.789062 C 136.679688 83.789062 136.207031 83.695312 135.757812 83.511719 C 135.308594 83.324219 134.910156 83.058594 134.566406 82.710938 C 134.21875 82.367188 133.953125 81.96875 133.769531 81.515625 C 133.582031 81.066406 133.488281 80.597656 133.488281 80.109375 C 133.488281 79.621094 133.582031 79.148438 133.769531 78.699219 C 133.953125 78.246094 134.21875 77.847656 134.566406 77.503906 C 134.910156 77.160156 135.308594 76.890625 135.757812 76.707031 C 136.207031 76.519531 136.679688 76.425781 137.164062 76.425781 C 137.652344 76.425781 138.121094 76.519531 138.574219 76.707031 C 139.023438 76.890625 139.421875 77.160156 139.765625 77.503906 C 140.113281 77.847656 140.378906 78.246094 140.5625 78.699219 C 140.75 79.148438 140.84375 79.621094 140.84375 80.109375 Z M 140.84375 80.109375 " fill-opacity="1" fill-rule="nonzero"/><path fill="#f4d681" d="M 150.195312 80.109375 C 150.195312 80.597656 150.101562 81.066406 149.917969 81.515625 C 149.730469 81.96875 149.464844 82.367188 149.121094 82.710938 C 148.773438 83.058594 148.375 83.324219 147.925781 83.511719 C 147.476562 83.695312 147.007812 83.789062 146.519531 83.789062 C 146.03125 83.789062 145.5625 83.695312 145.109375 83.511719 C 144.660156 83.324219 144.261719 83.058594 143.917969 82.710938 C 143.574219 82.367188 143.308594 81.96875 143.121094 81.515625 C 142.933594 81.066406 142.839844 80.597656 142.839844 80.109375 C 142.839844 79.621094 142.933594 79.148438 143.121094 78.699219 C 143.308594 78.246094 143.574219 77.847656 143.917969 77.503906 C 144.261719 77.160156 144.660156 76.890625 145.109375 76.707031 C 145.5625 76.519531 146.03125 76.425781 146.519531 76.425781 C 147.007812 76.425781 147.476562 76.519531 147.925781 76.707031 C 148.375 76.890625 148.773438 77.160156 149.121094 77.503906 C 149.464844 77.847656 149.730469 78.246094 149.917969 78.699219 C 150.101562 79.148438 150.195312 79.621094 150.195312 80.109375 Z M 150.195312 80.109375 " fill-opacity="1" fill-rule="nonzero"/><path fill="#00694f" d="M 159.761719 80.109375 C 159.761719 80.597656 159.667969 81.066406 159.480469 81.515625 C 159.292969 81.96875 159.027344 82.367188 158.683594 82.710938 C 158.335938 83.058594 157.941406 83.324219 157.488281 83.511719 C 157.039062 83.695312 156.570312 83.789062 156.082031 83.789062 C 155.59375 83.789062 155.125 83.695312 154.675781 83.511719 C 154.222656 83.324219 153.824219 83.058594 153.480469 82.710938 C 153.136719 82.367188 152.871094 81.96875 152.683594 81.515625 C 152.496094 81.066406 152.402344 80.597656 152.402344 80.109375 C 152.402344 79.621094 152.496094 79.148438 152.683594 78.699219 C 152.871094 78.246094 153.136719 77.847656 153.480469 77.503906 C 153.824219 77.160156 154.222656 76.890625 154.675781 76.707031 C 155.125 76.519531 155.59375 76.425781 156.082031 76.425781 C 156.570312 76.425781 157.039062 76.519531 157.488281 76.707031 C 157.941406 76.890625 158.335938 77.160156 158.683594 77.503906 C 159.027344 77.847656 159.292969 78.246094 159.480469 78.699219 C 159.667969 79.148438 159.761719 79.621094 159.761719 80.109375 Z M 159.761719 80.109375 " fill-opacity="1" fill-rule="nonzero"/><path fill="#606161" d="M 573.492188 73.269531 L 569.601562 77.265625 L 565.714844 73.269531 L 563.71875 75.269531 L 567.605469 79.160156 L 563.71875 83.160156 L 565.714844 85.054688 L 569.601562 81.160156 L 573.492188 85.054688 L 575.488281 83.160156 L 571.601562 79.160156 L 575.488281 75.269531 Z M 573.492188 73.269531 " fill-opacity="1" fill-rule="nonzero"/><path fill="#606161" d="M 570.445312 94.628906 L 563.929688 101.046875 L 565.292969 102.414062 L 570.445312 97.152344 L 575.699219 102.414062 L 576.960938 101.046875 Z M 570.445312 94.628906 " fill-opacity="1" fill-rule="nonzero"/><path fill="#606161" d="M 570.445312 325.691406 L 565.292969 320.429688 L 563.929688 321.796875 L 570.445312 328.214844 L 576.960938 321.796875 L 575.699219 320.429688 Z M 570.445312 325.691406 " fill-opacity="1" fill-rule="nonzero"/><path fill="#606161" d="M 580.113281 58.433594 L 124.554688 58.433594 C 119.195312 58.433594 114.886719 62.746094 114.886719 68.113281 L 114.886719 335.160156 C 114.886719 340.527344 119.195312 344.839844 124.554688 344.839844 L 580.113281 344.839844 C 585.472656 344.839844 589.78125 340.527344 589.78125 335.160156 L 589.78125 68.113281 C 589.78125 62.851562 585.472656 58.433594 580.113281 58.433594 Z M 562.035156 68.324219 L 567.394531 68.324219 C 574.121094 68.324219 579.691406 73.792969 579.691406 80.632812 L 579.691406 88.210938 L 562.035156 88.210938 Z M 562.035156 90.945312 L 579.585938 90.945312 L 579.585938 106.097656 L 562.035156 106.097656 Z M 562.035156 108.832031 L 579.585938 108.832031 L 579.585938 122.511719 L 562.035156 122.511719 Z M 562.035156 165.019531 L 579.585938 165.019531 L 579.585938 313.484375 L 562.035156 313.484375 Z M 559.304688 335.054688 L 137.375 335.054688 C 130.652344 335.054688 125.082031 329.582031 125.082031 322.742188 L 125.082031 90.945312 L 559.304688 90.945312 Z M 559.304688 88.105469 L 125.082031 88.105469 L 125.082031 80.527344 C 125.082031 73.792969 130.546875 68.21875 137.375 68.21875 L 559.304688 68.21875 Z M 567.394531 335.054688 L 562.035156 335.054688 L 562.035156 316.21875 L 579.585938 316.21875 L 579.585938 322.742188 C 579.585938 329.582031 574.121094 335.054688 567.394531 335.054688 Z M 567.394531 335.054688 " fill-opacity="1" fill-rule="nonzero"/><path fill="#ddd9ca" d="M 144.621094 348.195312 L 144.863281 349.960938 L 137.941406 350.921875 L 137.699219 349.15625 L 139.226562 340.742188 L 139.710938 337.933594 L 140.917969 340.5 Z M 144.621094 348.195312 " fill-opacity="1" fill-rule="nonzero"/><path fill="#f1c158" d="M 144.621094 348.195312 L 158.945312 455.699219 L 152.023438 456.660156 L 137.699219 349.15625 L 139.066406 349.71875 L 140.195312 348.835938 L 141.402344 349.398438 L 142.527344 348.515625 L 143.574219 348.996094 Z M 144.621094 348.195312 " fill-opacity="1" fill-rule="nonzero"/><path fill="#f1c158" d="M 140.917969 340.5 L 139.226562 340.742188 L 139.710938 337.933594 Z M 140.917969 340.5 " fill-opacity="1" fill-rule="nonzero"/><path fill="#ddd9ca" d="M 162.808594 362.625 L 162.726562 364.390625 L 155.726562 363.988281 L 155.808594 362.226562 L 158.945312 354.207031 L 159.910156 351.644531 L 160.636719 354.289062 Z M 162.808594 362.625 " fill-opacity="1" fill-rule="nonzero"/><path fill="#f1c158" d="M 162.808594 362.625 L 157.09375 470.929688 L 150.09375 470.527344 L 155.808594 362.226562 L 157.015625 362.945312 L 157.09375 363.027344 L 158.300781 362.386719 L 159.429688 363.105469 L 160.714844 362.464844 L 161.601562 363.1875 Z M 162.808594 362.625 " fill-opacity="1" fill-rule="nonzero"/><path fill="#f1c158" d="M 160.636719 354.289062 L 158.945312 354.207031 L 159.910156 351.644531 Z M 160.636719 354.289062 " fill-opacity="1" fill-rule="nonzero"/><path fill="#a31d4c" d="M 167.558594 348.835938 L 166.992188 352.765625 C 166.992188 352.84375 167.074219 352.925781 167.15625 352.925781 L 169.167969 352.765625 C 169.246094 352.765625 169.328125 352.683594 169.246094 352.605469 L 168.199219 348.757812 C 168.121094 348.4375 167.636719 348.515625 167.558594 348.835938 Z M 167.558594 348.835938 " fill-opacity="1" fill-rule="nonzero"/><path fill="#ddd9ca" d="M 168.765625 351.644531 L 167.394531 351.722656 C 167.15625 351.722656 166.914062 351.882812 166.914062 352.125 L 165.144531 359.339844 L 165.304688 361.101562 L 172.304688 360.621094 L 172.144531 358.859375 L 169.328125 351.964844 C 169.246094 351.722656 169.003906 351.5625 168.765625 351.644531 Z M 168.765625 351.644531 " fill-opacity="1" fill-rule="nonzero"/><path fill="#a31d4c" d="M 172.144531 358.859375 L 179.871094 467.082031 L 172.867188 467.5625 L 165.144531 359.339844 L 167.636719 359.179688 L 169.972656 359.019531 Z M 172.144531 358.859375 " fill-opacity="1" fill-rule="nonzero"/><path fill="#ddd9ca" d="M 170.214844 355.25 L 166.589844 355.570312 C 165.625 355.652344 164.980469 356.453125 164.980469 357.414062 L 165.144531 359.339844 L 172.144531 358.777344 L 171.984375 356.855469 C 171.902344 355.890625 171.097656 355.25 170.214844 355.25 Z M 170.214844 355.25 " fill-opacity="1" fill-rule="nonzero"/><path fill="#ffffff" d="M 179.628906 463.394531 L 172.628906 463.957031 L 172.867188 467.5625 L 179.871094 467.082031 Z M 179.628906 463.394531 " fill-opacity="1" fill-rule="nonzero"/><g clip-path="url(#c33ee1a2ff)"><path fill="#00694f" d="M 182.367188 336.652344 L 181.238281 340.417969 C 181.238281 340.5 181.238281 340.582031 181.320312 340.582031 L 183.332031 340.742188 C 183.410156 340.742188 183.492188 340.660156 183.492188 340.582031 L 182.929688 336.652344 C 182.929688 336.332031 182.445312 336.332031 182.367188 336.652344 Z M 182.367188 336.652344 " fill-opacity="1" fill-rule="nonzero"/></g><path fill="#ddd9ca" d="M 183.171875 339.539062 L 181.800781 339.457031 C 181.5625 339.457031 181.320312 339.617188 181.238281 339.777344 L 178.503906 346.671875 L 178.421875 348.4375 L 185.421875 348.917969 L 185.503906 347.152344 L 183.652344 339.9375 C 183.652344 339.777344 183.410156 339.617188 183.171875 339.539062 Z M 183.171875 339.539062 " fill-opacity="1" fill-rule="nonzero"/><path fill="#00694f" d="M 185.503906 347.234375 L 178.261719 455.457031 L 171.339844 454.976562 L 178.503906 346.753906 L 180.996094 346.914062 L 183.332031 347.074219 Z M 185.503906 347.234375 " fill-opacity="1" fill-rule="nonzero"/><path fill="#ddd9ca" d="M 184.054688 343.386719 L 180.433594 343.144531 C 179.46875 343.144531 178.664062 343.785156 178.664062 344.75 L 178.503906 346.671875 L 185.503906 347.152344 L 185.664062 345.230469 C 185.664062 344.269531 184.941406 343.464844 184.054688 343.386719 Z M 184.054688 343.386719 " fill-opacity="1" fill-rule="nonzero"/><path fill="#ffffff" d="M 178.503906 451.769531 L 171.582031 451.371094 L 171.339844 454.976562 L 178.261719 455.457031 Z M 178.503906 451.769531 " fill-opacity="1" fill-rule="nonzero"/><path fill="#a31d4c" d="M 196.046875 354.128906 L 194.355469 357.734375 C 194.355469 357.816406 194.355469 357.894531 194.4375 357.894531 L 196.449219 358.378906 C 196.53125 358.378906 196.609375 358.378906 196.609375 358.296875 L 196.609375 354.367188 C 196.691406 353.96875 196.207031 353.808594 196.046875 354.128906 Z M 196.046875 354.128906 " fill-opacity="1" fill-rule="nonzero"/><path fill="#ddd9ca" d="M 196.449219 357.175781 L 195.082031 356.855469 C 194.839844 356.773438 194.597656 356.933594 194.4375 357.09375 L 190.734375 363.507812 L 190.332031 365.191406 L 197.171875 366.792969 L 197.574219 365.109375 L 196.933594 357.65625 C 196.851562 357.414062 196.691406 357.253906 196.449219 357.175781 Z M 196.449219 357.175781 " fill-opacity="1" fill-rule="nonzero"/><path fill="#a31d4c" d="M 197.574219 365.109375 L 173.433594 470.769531 L 166.671875 469.167969 L 190.734375 363.507812 L 193.148438 364.070312 L 195.484375 364.628906 Z M 197.574219 365.109375 " fill-opacity="1" fill-rule="nonzero"/><path fill="#ddd9ca" d="M 196.691406 361.101562 L 193.148438 360.300781 C 192.265625 360.058594 191.378906 360.703125 191.136719 361.582031 L 190.734375 363.507812 L 197.574219 365.109375 L 197.976562 363.1875 C 198.21875 362.226562 197.574219 361.34375 196.691406 361.101562 Z M 196.691406 361.101562 " fill-opacity="1" fill-rule="nonzero"/><path fill="#ffffff" d="M 174.238281 467.160156 L 167.476562 465.640625 L 166.671875 469.167969 L 173.433594 470.769531 Z M 174.238281 467.160156 " fill-opacity="1" fill-rule="nonzero"/><g clip-path="url(#bf0f22e1ce)"><path fill="#ddd9ca" d="M 178.824219 473.894531 L 157.898438 473.894531 C 145.265625 473.894531 135.042969 463.714844 135.042969 451.128906 L 135.042969 386.996094 L 201.679688 386.996094 L 201.679688 451.046875 C 201.679688 463.632812 191.460938 473.894531 178.824219 473.894531 Z M 178.824219 473.894531 " fill-opacity="1" fill-rule="nonzero"/></g><g clip-path="url(#32e3b45394)"><path fill="#d9d9d9" d="M 518.464844 473.558594 L 487.707031 473.558594 C 474.230469 473.558594 463.34375 462.695312 463.34375 449.242188 L 463.34375 388.796875 L 542.832031 388.796875 L 542.832031 449.328125 C 542.832031 462.695312 531.859375 473.558594 518.464844 473.558594 Z M 518.464844 473.558594 " fill-opacity="1" fill-rule="nonzero"/></g><g clip-path="url(#64c5797adb)"><path fill="#d9d9d9" d="M 542.832031 388.796875 C 542.832031 389.402344 542.050781 389.917969 540.671875 390.4375 C 539.804688 390.78125 538.769531 391.039062 537.558594 391.296875 C 530.648438 392.851562 517.859375 393.796875 503.171875 393.796875 C 488.484375 393.796875 475.613281 392.765625 468.785156 391.296875 C 467.492188 391.039062 466.453125 390.695312 465.675781 390.4375 C 464.292969 389.917969 463.515625 389.402344 463.515625 388.796875 C 463.515625 386.039062 481.3125 383.710938 503.257812 383.710938 C 525.03125 383.710938 542.832031 385.953125 542.832031 388.796875 Z M 542.832031 388.796875 " fill-opacity="1" fill-rule="nonzero"/></g><path fill="#5b412f" d="M 540.582031 390.4375 C 539.71875 390.78125 538.683594 391.039062 537.472656 391.296875 C 530.5625 392.851562 517.773438 393.796875 503.085938 393.796875 C 488.398438 393.796875 475.527344 392.765625 468.699219 391.296875 C 467.402344 391.039062 466.367188 390.695312 465.589844 390.4375 C 470.945312 388.453125 485.722656 387.074219 503.085938 387.074219 C 520.453125 387.074219 535.226562 388.453125 540.582031 390.4375 Z M 540.582031 390.4375 " fill-opacity="1" fill-rule="nonzero"/><g clip-path="url(#e272fb48ae)"><path fill="#d9d9d9" d="M 538.25 400.957031 C 541.792969 400.957031 545.25 400.4375 548.792969 400.609375 C 552.335938 400.871094 556.480469 401.558594 558.902344 404.40625 C 562.527344 408.542969 562.011719 414.40625 561.839844 419.496094 C 561.75 422.339844 562.011719 425.269531 562.011719 428.117188 C 562.011719 431.738281 562.011719 435.359375 561.75 438.980469 C 561.492188 442.601562 561.234375 446.222656 558.640625 449.070312 C 557 450.878906 554.582031 452 552.160156 452.519531 C 547.410156 453.554688 542.65625 452.777344 537.820312 452.605469 C 535.488281 452.519531 533.152344 450.621094 533.238281 448.035156 C 533.328125 445.707031 535.226562 443.378906 537.820312 443.464844 C 541.363281 443.636719 544.902344 444.15625 548.53125 443.894531 C 548.792969 443.894531 549.050781 443.808594 549.308594 443.808594 C 550.261719 443.722656 548.1875 443.984375 549.050781 443.808594 C 549.484375 443.722656 549.828125 443.636719 550.261719 443.550781 C 550.691406 443.464844 551.125 443.292969 551.554688 443.121094 C 552.074219 442.949219 551.210938 443.035156 551.039062 443.292969 C 551.125 443.207031 551.644531 442.949219 551.816406 442.863281 C 552.335938 442.601562 552.246094 442.257812 551.554688 443.121094 C 551.644531 443.035156 551.816406 442.863281 551.902344 442.777344 C 551.988281 442.6875 552.160156 442.515625 552.246094 442.429688 C 551.46875 442.863281 551.730469 443.292969 551.988281 442.6875 C 552.335938 441.914062 551.902344 442.777344 551.988281 442.863281 C 551.988281 442.863281 552.160156 442.257812 552.246094 442.171875 C 552.335938 441.828125 552.507812 441.394531 552.507812 441.050781 C 552.507812 442.171875 552.507812 440.621094 552.507812 440.359375 C 553.023438 433.894531 552.851562 427.425781 552.765625 420.960938 C 552.765625 419.148438 552.851562 417.339844 552.9375 415.613281 C 552.9375 414.578125 552.9375 413.542969 552.851562 412.597656 C 552.851562 412.335938 552.765625 412.078125 552.765625 411.820312 C 552.765625 413.113281 552.851562 412.421875 552.765625 411.992188 C 552.679688 411.476562 552.507812 411.042969 552.421875 410.527344 C 552.160156 409.664062 552.9375 411.476562 552.507812 410.785156 C 552.335938 410.527344 552.160156 410.269531 552.074219 410.007812 C 552.421875 410.699219 552.679688 410.785156 552.335938 410.441406 C 552.246094 410.355469 552.160156 410.269531 551.988281 410.183594 C 552.421875 410.527344 552.507812 410.613281 552.074219 410.269531 C 551.210938 409.664062 552.9375 410.441406 551.902344 410.183594 C 551.46875 410.09375 551.125 409.921875 550.691406 409.835938 C 550.433594 409.75 550.085938 409.75 549.828125 409.664062 C 549.308594 409.578125 549.398438 409.578125 550 409.664062 C 549.742188 409.664062 549.398438 409.578125 549.136719 409.578125 C 545.507812 409.320312 541.792969 409.835938 538.164062 409.835938 C 535.832031 409.835938 533.5 407.765625 533.585938 405.265625 C 533.84375 402.9375 535.746094 400.957031 538.25 400.957031 Z M 538.25 400.957031 " fill-opacity="1" fill-rule="nonzero"/></g></svg>