<?xml version="1.0" standalone="no"?>
<!DOCTYPE svg PUBLIC "-//W3C//DTD SVG 20010904//EN"
 "http://www.w3.org/TR/2001/REC-SVG-20010904/DTD/svg10.dtd">
<svg version="1.0" xmlns="http://www.w3.org/2000/svg"
 width="80.000000pt" height="98.000000pt" viewBox="0 0 80.000000 98.000000"
 preserveAspectRatio="xMidYMid meet">

<g transform="translate(0.000000,98.000000) scale(0.100000,-0.100000)"
fill="#000000" stroke="none">
<path d="M0 920 c0 -59 71 -795 77 -801 5 -4 79 -27 165 -52 l158 -44 162 45
c90 25 165 46 167 48 5 4 71 728 71 782 l0 42 -400 0 c-392 0 -400 0 -400 -20z
m645 -242 c-14 -201 -36 -413 -43 -420 -4 -3 -51 -18 -105 -33 l-97 -26 -98
27 c-53 15 -101 30 -105 34 -5 4 -12 42 -16 84 l-7 76 53 0 c51 0 53 -1 53
-28 0 -40 18 -58 73 -71 54 -13 133 1 155 27 6 9 12 40 12 69 l0 53 -175 0
-175 0 0 50 0 50 179 0 c197 0 191 -2 191 66 l0 34 -189 0 -188 0 -7 31 c-15
75 -35 69 245 69 l251 0 -7 -92z"/>
</g>
</svg>
