<?xml version="1.0" standalone="no"?>
<!DOCTYPE svg PUBLIC "-//W3C//DTD SVG 20010904//EN"
 "http://www.w3.org/TR/2001/REC-SVG-20010904/DTD/svg10.dtd">
<svg version="1.0" xmlns="http://www.w3.org/2000/svg"
 width="80.000000pt" height="99.000000pt" viewBox="0 0 80.000000 99.000000"
 preserveAspectRatio="xMidYMid meet">

<g transform="translate(0.000000,99.000000) scale(0.100000,-0.100000)"
fill="#000000" stroke="none">
<path d="M0 931 c0 -11 16 -191 35 -401 19 -210 35 -385 35 -390 0 -10 17 -15
198 -65 l134 -37 151 42 c84 23 157 43 164 45 7 2 15 14 17 27 7 34 66 716 66
761 l0 37 -400 0 c-389 0 -400 -1 -400 -19z m648 -194 l-3 -52 -194 -3 -193
-2 6 -31 c3 -18 6 -40 6 -50 0 -18 11 -19 185 -19 l185 0 -5 -37 c-3 -21 -10
-90 -15 -153 -6 -63 -12 -116 -14 -117 -1 -2 -47 -16 -102 -31 l-100 -28 -103
28 c-57 15 -105 28 -106 30 -1 2 -5 38 -9 81 l-7 77 50 0 51 0 6 -40 c6 -38 9
-40 62 -55 51 -15 59 -15 111 2 l56 18 5 63 5 62 -176 0 -176 0 -7 96 c-4 53
-9 123 -13 155 l-6 59 252 0 252 0 -3 -53z"/>
</g>
</svg>
