<?xml version="1.0" standalone="no"?>
<!DOCTYPE svg PUBLIC "-//W3C//DTD SVG 20010904//EN"
 "http://www.w3.org/TR/2001/REC-SVG-20010904/DTD/svg10.dtd">
<svg version="1.0" xmlns="http://www.w3.org/2000/svg"
 width="500.000000pt" height="500.000000pt" viewBox="0 0 500.000000 500.000000"
 preserveAspectRatio="xMidYMid meet">

<g transform="translate(0.000000,500.000000) scale(0.100000,-0.100000)"
fill="#000000" stroke="none">
<path d="M2315 4989 c-519 -40 -1015 -241 -1415 -575 -82 -68 -272 -260 -336
-339 -605 -744 -730 -1773 -320 -2640 132 -278 291 -500 518 -720 127 -125
176 -166 298 -252 733 -519 1696 -604 2503 -220 256 121 468 269 670 467 221
215 372 421 502 684 87 177 134 302 180 482 97 377 107 740 30 1129 -74 370
-261 764 -510 1070 -103 127 -310 326 -440 422 -394 294 -834 456 -1335 493
-150 11 -186 11 -345 -1z m525 -124 c523 -76 1014 -330 1381 -712 181 -189
312 -378 429 -618 109 -223 179 -451 216 -700 22 -148 25 -506 5 -635 -45
-298 -108 -505 -225 -745 -237 -483 -617 -863 -1101 -1100 -231 -113 -456
-183 -710 -221 -148 -22 -506 -25 -635 -5 -298 45 -505 108 -745 225 -472 232
-848 603 -1086 1071 -126 249 -193 467 -240 775 -20 129 -17 488 5 635 37 249
107 477 216 700 234 481 602 856 1075 1096 286 145 593 230 910 253 99 7 402
-4 505 -19z"/>
<path d="M2240 4625 c-340 -44 -646 -157 -923 -342 -170 -113 -325 -251 -456
-408 -71 -86 -141 -179 -141 -189 0 -10 293 -6 510 8 113 7 214 10 225 6 60
-23 79 -101 34 -145 -26 -27 -103 -45 -190 -45 -26 0 -60 -3 -77 -6 l-30 -6
250 -742 c137 -407 311 -924 386 -1148 75 -224 140 -402 143 -395 4 7 109 319
234 695 l228 683 -113 307 c-61 169 -136 372 -165 452 l-53 145 -38 7 c-22 4
-81 11 -132 16 -112 11 -135 27 -135 91 0 44 22 77 58 91 11 4 112 1 225 -6
260 -16 500 -16 760 0 113 7 214 10 225 6 60 -23 79 -101 34 -145 -26 -27
-103 -45 -190 -45 -26 0 -60 -3 -77 -6 l-30 -6 275 -817 c151 -449 322 -959
381 -1133 58 -175 109 -318 112 -318 3 0 59 177 124 393 258 857 251 828 243
1032 -8 222 -51 345 -222 630 -46 77 -99 176 -117 220 -30 73 -32 89 -33 190
0 103 2 114 32 177 54 115 145 185 272 211 l63 12 -78 64 c-270 218 -609 378
-936 442 -202 39 -487 49 -678 24z"/>
<path d="M4398 3364 c8 -239 -34 -475 -132 -745 -24 -68 -65 -185 -91 -259
-26 -74 -62 -178 -80 -230 -18 -52 -40 -115 -49 -140 -22 -66 -95 -278 -176
-510 -39 -113 -80 -230 -90 -260 -10 -30 -57 -167 -104 -304 -48 -137 -84
-251 -82 -253 7 -7 194 124 279 196 490 413 767 1006 767 1641 0 322 -75 651
-214 936 l-32 67 4 -139z"/>
<path d="M501 3263 c-18 -49 -37 -99 -42 -113 -55 -154 -99 -439 -99 -650 0
-646 291 -1255 797 -1668 117 -95 393 -266 393 -244 0 10 -61 182 -145 407
-18 50 -70 191 -115 315 -45 124 -90 248 -100 275 -11 28 -78 212 -150 410
-72 198 -139 383 -150 410 -10 28 -55 151 -100 275 -45 124 -97 266 -115 315
-18 50 -54 150 -81 223 -27 72 -51 132 -55 132 -3 0 -21 -39 -38 -87z"/>
<path d="M2522 2259 c-6 -19 -53 -160 -107 -314 -53 -154 -105 -305 -115 -335
-10 -30 -55 -161 -100 -290 -45 -129 -90 -260 -100 -290 -10 -30 -59 -174
-109 -319 -50 -145 -90 -266 -88 -267 1 -1 53 -14 116 -29 352 -81 715 -72
1061 25 41 12 85 24 98 27 12 3 22 9 22 14 0 7 -179 502 -240 664 -10 28 -70
192 -133 365 -64 173 -152 416 -197 540 -45 124 -86 229 -90 234 -5 4 -13 -7
-18 -25z"/>
</g>
</svg>
