<?xml version="1.0" standalone="no"?>
<!DOCTYPE svg PUBLIC "-//W3C//DTD SVG 20010904//EN"
 "http://www.w3.org/TR/2001/REC-SVG-20010904/DTD/svg10.dtd">
<svg version="1.0" xmlns="http://www.w3.org/2000/svg"
 width="600.000000pt" height="600.000000pt" viewBox="0 0 600.000000 600.000000"
 preserveAspectRatio="xMidYMid meet">

<g transform="translate(0.000000,600.000000) scale(0.100000,-0.100000)"
fill="#000000" stroke="none">
<path d="M970 5860 c-133 -22 -208 -45 -310 -93 -164 -78 -315 -208 -416 -362
-87 -130 -131 -235 -153 -361 -7 -38 -17 -85 -22 -105 -12 -48 -12 -3826 0
-3882 5 -23 15 -69 21 -102 22 -114 89 -276 153 -370 117 -172 331 -334 533
-403 160 -55 78 -53 2274 -50 2248 4 2068 -1 2250 69 267 102 500 354 598 644
50 149 47 25 47 2155 l0 1995 -23 80 c-58 205 -143 355 -276 486 -143 143
-267 213 -496 281 l-75 22 -2030 2 c-1117 1 -2050 -2 -2075 -6z m1405 -1155
c174 -23 340 -74 438 -136 114 -72 159 -110 332 -280 202 -200 252 -243 357
-300 125 -69 234 -102 413 -125 100 -13 139 -13 233 -3 63 6 108 15 101 19 -7
5 -18 6 -25 3 -22 -8 -283 39 -309 57 -5 3 -30 13 -55 20 -83 26 -133 63 -98
74 20 6 189 45 223 51 231 41 484 22 703 -51 64 -22 219 -100 262 -132 67 -50
74 -57 146 -125 61 -58 184 -218 184 -240 0 -3 11 -30 24 -59 52 -117 76 -237
76 -383 0 -257 -98 -485 -289 -674 -87 -85 -144 -131 -211 -167 -19 -10 -37
-21 -40 -24 -13 -13 -171 -81 -200 -85 -3 -1 -21 -6 -40 -13 -60 -20 -192 -42
-255 -42 -88 0 -102 -6 -113 -48 -6 -21 -26 -91 -47 -157 -20 -66 -38 -127
-40 -135 -1 -8 -17 -60 -34 -115 -18 -55 -37 -118 -43 -140 -54 -192 -67 -213
-113 -182 -17 11 -128 59 -145 63 -6 1 -36 12 -68 25 -13 5 -32 9 -43 9 -10 0
-27 4 -37 10 -27 16 -185 41 -331 54 -158 13 -373 0 -541 -33 -143 -29 -275
-43 -335 -36 -28 3 -73 19 -100 34 -55 31 -131 104 -141 133 -3 10 -9 18 -13
18 -7 0 -33 50 -37 70 0 3 -4 12 -8 21 -4 9 -6 34 -4 55 3 33 6 38 33 41 17 2
53 12 80 23 28 10 68 24 90 30 150 43 516 225 478 237 -7 3 -22 -2 -35 -11
-21 -13 -80 -36 -188 -72 -25 -8 -52 -18 -60 -21 -8 -3 -22 -7 -30 -9 -184
-41 -227 -47 -345 -50 -129 -2 -254 15 -425 60 -84 21 -233 76 -251 92 -8 8
-20 14 -26 14 -16 0 -97 45 -175 98 -39 26 -87 58 -106 71 -33 22 -220 204
-268 261 -11 14 -34 45 -49 70 -15 25 -31 47 -35 50 -26 20 -148 307 -166 392
-24 112 -29 164 -29 308 0 158 22 336 44 365 5 5 11 24 15 40 7 33 68 187 76
195 3 3 21 34 39 70 19 36 38 67 43 68 4 2 8 9 8 15 0 7 13 26 28 43 15 17 38
46 52 65 48 66 174 184 276 258 48 34 203 120 264 145 25 10 59 24 75 31 102
43 209 71 310 82 28 3 66 9 85 13 59 13 299 11 415 -5z"/>
</g>
</svg>
